/* XPM */
static char * C:\Users\Leonardo\Downloads\assets\player\down_xpm[] = {
"32 32 356 2",
"  	c #517104",
". 	c #6E9114",
"+ 	c #68870A",
"@ 	c #436100",
"# 	c #527404",
"$ 	c #638414",
"% 	c #5C7D0A",
"& 	c #618216",
"* 	c #84A62B",
"= 	c #55760C",
"- 	c #496800",
"; 	c #597A0A",
"> 	c #527102",
", 	c #383739",
"' 	c #50720F",
") 	c #57780D",
"! 	c #668A1A",
"~ 	c #5E7D0C",
"{ 	c #4C6F0E",
"] 	c #486800",
"^ 	c #3D5E00",
"/ 	c #668505",
"( 	c #365400",
"_ 	c #426300",
": 	c #5A7B0E",
"< 	c #61830A",
"[ 	c #5D7C04",
"} 	c #4B6B06",
"| 	c #365700",
"1 	c #618014",
"2 	c #416100",
"3 	c #557400",
"4 	c #698A14",
"5 	c #476700",
"6 	c #5C7D06",
"7 	c #5B4066",
"8 	c #7737A2",
"9 	c #476800",
"0 	c #577500",
"a 	c #5F8015",
"b 	c #3B5A00",
"c 	c #56770A",
"d 	c #5B7806",
"e 	c #4E6B00",
"f 	c #436600",
"g 	c #608208",
"h 	c #4A6A00",
"i 	c #496900",
"j 	c #476806",
"k 	c #517103",
"l 	c #5A7B06",
"m 	c #547500",
"n 	c #5F7E08",
"o 	c #9735CC",
"p 	c #6E8D10",
"q 	c #5B7A00",
"r 	c #3D5C00",
"s 	c #466500",
"t 	c #63840A",
"u 	c #3E5C00",
"v 	c #567708",
"w 	c #426100",
"x 	c #577600",
"y 	c #547406",
"z 	c #597B08",
"A 	c #52710D",
"B 	c #698B1C",
"C 	c #476600",
"D 	c #5B7A08",
"E 	c #456600",
"F 	c #557403",
"G 	c #668707",
"H 	c #466400",
"I 	c #496A00",
"J 	c #4F6E00",
"K 	c #54760A",
"L 	c #547300",
"M 	c #51740F",
"N 	c #5A7A01",
"O 	c #436200",
"P 	c #4E6D00",
"Q 	c #496700",
"R 	c #426200",
"S 	c #6A8B14",
"T 	c #527100",
"U 	c #648306",
"V 	c #446200",
"W 	c #638518",
"X 	c #5B7D18",
"Y 	c #5D7E0A",
"Z 	c #6F9115",
"` 	c #4E700A",
" .	c #4C6E00",
"..	c #658718",
"+.	c #FF85AF",
"@.	c #799B1F",
"#.	c #72951C",
"$.	c #476900",
"%.	c #587802",
"&.	c #345000",
"*.	c #4D6E00",
"=.	c #577700",
"-.	c #5F8116",
";.	c #4C6B03",
">.	c #305000",
",.	c #527301",
"'.	c #4F6F00",
").	c #658723",
"!.	c #FFB2C9",
"~.	c #FFD5DB",
"{.	c #4B6B00",
"].	c #53740A",
"^.	c #5F800F",
"/.	c #52730D",
"(.	c #64871A",
"_.	c #59780C",
":.	c #4D6E01",
"<.	c #466503",
"[.	c #5E800C",
"}.	c #315000",
"|.	c #446300",
"1.	c #4F7003",
"2.	c #486908",
"3.	c #587B0F",
"4.	c #446603",
"5.	c #4F7000",
"6.	c #3A5800",
"7.	c #375700",
"8.	c #456506",
"9.	c #456300",
"0.	c #547611",
"a.	c #4B6A00",
"b.	c #314E00",
"c.	c #476500",
"d.	c #506F08",
"e.	c #5D7C06",
"f.	c #4D6C00",
"g.	c #335400",
"h.	c #425F00",
"i.	c #4D6D00",
"j.	c #71931B",
"k.	c #616045",
"l.	c #7F8164",
"m.	c #415E00",
"n.	c #587901",
"o.	c #486700",
"p.	c #446301",
"q.	c #729218",
"r.	c #506F02",
"s.	c #587A04",
"t.	c #456704",
"u.	c #6A8C23",
"v.	c #557200",
"w.	c #45321D",
"x.	c #A26E46",
"y.	c #534721",
"z.	c #7EA039",
"A.	c #54740C",
"B.	c #749416",
"C.	c #4D6C08",
"D.	c #5A7900",
"E.	c #6C8C0C",
"F.	c #4E6E00",
"G.	c #50730F",
"H.	c #3A5900",
"I.	c #3E5E00",
"J.	c #D9D9D9",
"K.	c #2E1E22",
"L.	c #D9D9DD",
"M.	c #C3B380",
"N.	c #537200",
"O.	c #537506",
"P.	c #7EA227",
"Q.	c #3F6100",
"R.	c #5E7F06",
"S.	c #5E7D08",
"T.	c #4A6900",
"U.	c #4C6D00",
"V.	c #638716",
"W.	c #375500",
"X.	c #42422E",
"Y.	c #A6AA8C",
"Z.	c #B20FFF",
"`.	c #EEF5ED",
" +	c #514B46",
".+	c #A8A1A3",
"++	c #CFC299",
"@+	c #587604",
"#+	c #46660E",
"$+	c #4B6800",
"%+	c #5B7C0F",
"&+	c #375900",
"*+	c #405F00",
"=+	c #648206",
"-+	c #415F00",
";+	c #DCFFDE",
">+	c #76582B",
",+	c #A107E9",
"'+	c #638205",
")+	c #4E6E0A",
"!+	c #2F4F00",
"~+	c #527203",
"{+	c #5F7E00",
"]+	c #62830D",
"^+	c #4E6D0A",
"/+	c #4A6904",
"(+	c #5A7C0E",
"_+	c #4C6E18",
":+	c #577A13",
"<+	c #4C6C00",
"[+	c #5C7E1A",
"}+	c #B69866",
"|+	c #406300",
"1+	c #5D7F0E",
"2+	c #517000",
"3+	c #65881D",
"4+	c #4E6E06",
"5+	c #456700",
"6+	c #719327",
"7+	c #8C5FA4",
"8+	c #6C4F2D",
"9+	c #385800",
"0+	c #527101",
"a+	c #668816",
"b+	c #648213",
"c+	c #557606",
"d+	c #567402",
"e+	c #5A7A0A",
"f+	c #62851D",
"g+	c #60810F",
"h+	c #749623",
"i+	c #89AB39",
"j+	c #456500",
"k+	c #678709",
"l+	c #5E7F02",
"m+	c #747676",
"n+	c #D6DAD9",
"o+	c #B086CB",
"p+	c #547710",
"q+	c #537400",
"r+	c #567401",
"s+	c #557718",
"t+	c #4D6B00",
"u+	c #B4B8B7",
"v+	c #FFFFFF",
"w+	c #C59DE2",
"x+	c #52730A",
"y+	c #3D5A00",
"z+	c #51730E",
"A+	c #5A7B08",
"B+	c #6A8C13",
"C+	c #456400",
"D+	c #355400",
"E+	c #6F901F",
"F+	c #557600",
"G+	c #5E7C00",
"H+	c #597C1C",
"I+	c #395900",
"J+	c #67860C",
"K+	c #3E5D00",
"L+	c #506F00",
"M+	c #628416",
"N+	c #638515",
"O+	c #663450",
"P+	c #FF7DC1",
"Q+	c #FFACD4",
"R+	c #507103",
"S+	c #547400",
"T+	c #62840E",
"U+	c #4D6F08",
"V+	c #325200",
"W+	c #405E00",
"X+	c #476A00",
"Y+	c #FFD0DF",
"Z+	c #682A9D",
"`+	c #525454",
" @	c #597B0A",
".@	c #587702",
"+@	c #446500",
"@@	c #444444",
"#@	c #7528E0",
"$@	c #8E2BFF",
"%@	c #6C6D6D",
"&@	c #628622",
"*@	c #62821A",
"=@	c #4A6801",
"-@	c #557708",
";@	c #436300",
">@	c #405D00",
",@	c #5D8004",
"'@	c #304F00",
")@	c #60811A",
"!@	c #517206",
"~@	c #6B8D26",
"{@	c #618318",
"]@	c #557603",
"^@	c #2F4D00",
"/@	c #597A0D",
"(@	c #3C5C00",
"_@	c #5A4165",
":@	c #432270",
"<@	c #517106",
"[@	c #3A5B00",
"}@	c #678814",
"|@	c #5E8021",
"1@	c #567400",
"2@	c #4B6D0A",
"3@	c #507108",
"4@	c #6A8C16",
"5@	c #63820D",
"6@	c #507200",
"7@	c #668818",
"8@	c #50720A",
"9@	c #5C7E0A",
"0@	c #57790E",
"a@	c #5F8016",
"b@	c #8E4E8F",
"c@	c #794D7A",
"d@	c #2E4E00",
"e@	c #6B8C18",
"f@	c #587A18",
"g@	c #68880F",
"h@	c #57770A",
"i@	c #65840A",
"j@	c #6A8E1F",
"k@	c #324F00",
"l@	c #57790A",
"m@	c #7B9D27",
"n@	c #59790D",
"o@	c #507004",
"p@	c #5B7A02",
"q@	c #597B0F",
"r@	c #B268A9",
"s@	c #436404",
"t@	c #3D5D00",
"u@	c #5E7F0A",
"v@	c #5E8222",
"w@	c #65870E",
"x@	c #5A7C08",
"y@	c #395A00",
"z@	c #698B0F",
"A@	c #5B7C15",
"B@	c #4D6D04",
"C@	c #617F02",
"D@	c #4D700E",
"E@	c #416000",
"F@	c #73961E",
"G@	c #5B7D0A",
"H@	c #587C1B",
"I@	c #658508",
"J@	c #668716",
"K@	c #557608",
"L@	c #517304",
"M@	c #4C6C04",
"N@	c #416200",
"O@	c #4A6C01",
"  . + @ # $ % & * = - ; > , , , , , , , , , ' ) ! ~ { ] ^ / ( _ ",
": < [ } | 1 2 3 4 5 6 , , 7 7 8 8 7 7 7 7 7 , , 9 0 a b c d e f ",
"g h i j ^ k l m n @ , 7 8 8 o o o 8 7 , , 7 7 7 , p q r s t u v ",
"w x y z A B C D E , 7 8 8 o o o o o 8 8 7 , , , h F G H I J K i ",
"L J M N O P Q R , 7 8 8 o o o o o o o 8 8 7 , - S T U C i V 9 W ",
"s X Y Z ` W  ..., +.+.8 o o o o o o o 8 +.+., @.#.$.%.&.*.b =.-.",
";.>.k ,.'.)., , , +.!.!.!.~.~.~.~.~.!.!.!.+., , , {.b ].^./.(._.",
":.<.i [., , 7 7 7 8 8 !.~.~.~.~.~.~.~.!.8 8 7 7 7 , , }.C |.1.2.",
"3.4. ., 7 7 7 8 8 o o o o o o o o o o o o o 8 8 7 7 7 , 5.- 6.7.",
"s 8., 7 7 8 8 8 o o o o o o 8 8 8 o o o o o o 8 8 8 7 7 , 9.0.a.",
"b.c.I , , 7 7 8 8 8 8 7 , , , , , , , 7 8 8 8 8 7 7 , , w d.e.f.",
"g.V h.i.j., , , , , , , k.l.l.l.l.l.k., , , , , , , m.H n.o.p.q.",
"r.s.t.u.v.w.x.l.l.k.y.k.y.k.l.l.l.k.y.k.y.k.l.l.x.w.z.A.B.C.D.E.",
"y F.G.H.I.w.x.l.l.y.J.K.L.M.k.l.k.M.L.K.J.y.l.l.x.w.N.O.P.Q.R.S.",
"T.U.V.W.X.k.w.l.Y.Z.`. +.+++Z.k.Z.++.+ +`.Z.Y.l.w.k.X.@+n.#+$+%+",
"&+*+=+-+X.k.X.l.Y.Z.;+>+>+++,+M.,+++>+>+;+Z.Y.l.X.k.X.'+h )+f.J ",
"!+~+{+o.X.k.X.l.l.x.Z.Z.Z.Z.M.M.M.Z.Z.Z.Z.x.l.l.X.k.X.]+^+/+=.(+",
"_+:+<+[+X.k.X.l.l.w.x.}+M.M.M.M.M.M.M.}+x.w.l.l.X.k.X.2 |+1+2+3+",
"4+5+6+9 X.k.X.k.l.7+w.8+x.}+}+}+}+}+x.8+w.7+l.k.X.k.X.9+0+a+b+c+",
"d+e+f+P X.k.X.k.l.l.7+w.w.w.w.w.w.w.w.w.7+l.l.k.X.k.X.g+h+i+j+F.",
")+k+i l+X.k.m+n+k.l.7+o+o+7+7+7+7+7+o+o+7+l.k.n+m+k.X.R P p+1+q+",
"] r+s+t+q+m+u+n+v+k.l.7+o+w+w+w+w+w+o+7+l.k.v+n+u+m+x+y+z+A+B+C+",
"D+E+0.F+G+m+n+v+n+m+u+n+o+o+w+w+w+o+o+n+u+m+n+v+n+m+H+I+C J+P K+",
"L+M+9+N+O+P+Q+v+n+m+m+u+u+u+n+n+n+u+u+u+m+m+n+v+Q+P+O+2 R+S+T+U+",
"V+W+<+X+w.M.M.Y+u+m+Z+u+n+v+v+`+v+v+n+u+Z+m+u+Y+M.M.w. @C l @ .@",
"r b +@*+w.M.}+Q+u+@@#@`+#@`+$@%@$@`+#@`+#@@@u+Q+}+M.w.&@*@=@C+-@",
";@>@,@_ '@w.w.P+P+@@#@`+$@%@$@%@$@%@$@`+#@@@P+P+w.w.] )@!@~@{@]@",
"^@O K+/@(@_@_@O+O+:@Z+@@#@`+#@@@#@`+#@@@Z+:@O+O+_@_@<@[@}@|@{.1@",
"2@3@@ i.w _@_@_@_@_@:@x.x.x.:@:@:@x.x.x.:@_@_@_@_@_@4@5@6@7@*.d+",
"8@u 9@I+] 0@_@a@Q I.O+b@b@c@O+d@O+c@b@b@O+e@f@V _@g@h@i@j@5+i.k@",
"2+l@m@;@s n@o@p@q@- O+r@r@b@O+s@O+b@r@r@O+c t@u@v@w@x@6@~@ .U.y@",
"F.k@z@A@*+T B@C@D@u F.O+O+O+0+E@F@O+O+O+G@O H@I@J@K@E L@b M@N@O@"};
