/* XPM */
static char * C:\Users\Leonardo\Downloads\assets\player\left_xpm[] = {
"32 32 412 2",
"  	c #517104",
". 	c #6E9114",
"+ 	c #68870A",
"@ 	c #436100",
"# 	c #527404",
"$ 	c #638414",
"% 	c #5C7D0A",
"& 	c #618216",
"* 	c #84A62B",
"= 	c #55760C",
"- 	c #496800",
"; 	c #597A0A",
"> 	c #527102",
", 	c #466600",
"' 	c #69890C",
") 	c #56770C",
"! 	c #486600",
"~ 	c #517000",
"{ 	c #4F7006",
"] 	c #383739",
"^ 	c #57780D",
"/ 	c #668A1A",
"( 	c #5E7D0C",
"_ 	c #4C6F0E",
": 	c #486800",
"< 	c #3D5E00",
"[ 	c #668505",
"} 	c #365400",
"| 	c #426300",
"1 	c #5A7B0E",
"2 	c #61830A",
"3 	c #5D7C04",
"4 	c #4B6B06",
"5 	c #365700",
"6 	c #618014",
"7 	c #416100",
"8 	c #557400",
"9 	c #698A14",
"0 	c #476700",
"a 	c #5C7D06",
"b 	c #567400",
"c 	c #375500",
"d 	c #5B4066",
"e 	c #577500",
"f 	c #5F8015",
"g 	c #3B5A00",
"h 	c #56770A",
"i 	c #5B7806",
"j 	c #4E6B00",
"k 	c #436600",
"l 	c #608208",
"m 	c #4A6A00",
"n 	c #496900",
"o 	c #476806",
"p 	c #517103",
"q 	c #5A7B06",
"r 	c #547500",
"s 	c #5F7E08",
"t 	c #6B8D1F",
"u 	c #719218",
"v 	c #7737A2",
"w 	c #9735CC",
"x 	c #5B7A00",
"y 	c #3D5C00",
"z 	c #466500",
"A 	c #63840A",
"B 	c #3E5C00",
"C 	c #567708",
"D 	c #426100",
"E 	c #577600",
"F 	c #547406",
"G 	c #597B08",
"H 	c #52710D",
"I 	c #698B1C",
"J 	c #476600",
"K 	c #5B7A08",
"L 	c #456600",
"M 	c #648509",
"N 	c #426000",
"O 	c #557403",
"P 	c #668707",
"Q 	c #466400",
"R 	c #496A00",
"S 	c #4F6E00",
"T 	c #54760A",
"U 	c #547300",
"V 	c #51740F",
"W 	c #5A7A01",
"X 	c #436200",
"Y 	c #4E6D00",
"Z 	c #496700",
"` 	c #426200",
" .	c #678811",
"..	c #769722",
"+.	c #6A8B14",
"@.	c #527100",
"#.	c #648306",
"$.	c #446200",
"%.	c #476800",
"&.	c #638518",
"*.	c #5B7D18",
"=.	c #5D7E0A",
"-.	c #6F9115",
";.	c #4E700A",
">.	c #4C6E00",
",.	c #658718",
"'.	c #6D8F1F",
").	c #72951C",
"!.	c #476900",
"~.	c #587802",
"{.	c #345000",
"].	c #4D6E00",
"^.	c #577700",
"/.	c #5F8116",
"(.	c #4C6B03",
"_.	c #305000",
":.	c #527301",
"<.	c #4F6F00",
"[.	c #658723",
"}.	c #678814",
"|.	c #5B7E13",
"1.	c #4F7106",
"2.	c #FF85AF",
"3.	c #5C7F0E",
"4.	c #4B6B00",
"5.	c #53740A",
"6.	c #5F800F",
"7.	c #52730D",
"8.	c #64871A",
"9.	c #59780C",
"0.	c #4D6E01",
"a.	c #466503",
"b.	c #5E800C",
"c.	c #4F6E0A",
"d.	c #688A15",
"e.	c #FFB2C9",
"f.	c #FFD5DB",
"g.	c #476500",
"h.	c #315000",
"i.	c #446300",
"j.	c #4F7003",
"k.	c #486908",
"l.	c #587B0F",
"m.	c #446603",
"n.	c #5D7F0A",
"o.	c #4F7000",
"p.	c #3A5800",
"q.	c #375700",
"r.	c #456506",
"s.	c #5A7C0D",
"t.	c #456300",
"u.	c #547611",
"v.	c #4B6A00",
"w.	c #314E00",
"x.	c #6A8A18",
"y.	c #5D7C06",
"z.	c #4D6C00",
"A.	c #335400",
"B.	c #425F00",
"C.	c #4D6D00",
"D.	c #71931B",
"E.	c #4D6B00",
"F.	c #486700",
"G.	c #446301",
"H.	c #729218",
"I.	c #506F02",
"J.	c #587A04",
"K.	c #456704",
"L.	c #6A8C23",
"M.	c #557200",
"N.	c #608006",
"O.	c #42422E",
"P.	c #7F8164",
"Q.	c #54740C",
"R.	c #749416",
"S.	c #4D6C08",
"T.	c #5A7900",
"U.	c #6C8C0C",
"V.	c #4E6E00",
"W.	c #50730F",
"X.	c #3A5900",
"Y.	c #3E5E00",
"Z.	c #597C0E",
"`.	c #616045",
" +	c #537506",
".+	c #7EA227",
"++	c #3F6100",
"@+	c #5E7F06",
"#+	c #5E7D08",
"$+	c #4A6900",
"%+	c #4C6D00",
"&+	c #638716",
"*+	c #5D7E0D",
"=+	c #5F8118",
"-+	c #C3B380",
";+	c #D9D9DD",
">+	c #2E1E22",
",+	c #D9D9D9",
"'+	c #534721",
")+	c #587604",
"!+	c #587901",
"~+	c #46660E",
"{+	c #4B6800",
"]+	c #5B7C0F",
"^+	c #375900",
"/+	c #405F00",
"(+	c #648206",
"_+	c #415F00",
":+	c #63841F",
"<+	c #50710E",
"[+	c #B20FFF",
"}+	c #CFC299",
"|+	c #A8A1A3",
"1+	c #514B46",
"2+	c #EEF5ED",
"3+	c #A107E9",
"4+	c #A6AA8C",
"5+	c #4E6E0A",
"6+	c #2F4F00",
"7+	c #527203",
"8+	c #5F7E00",
"9+	c #4D6D03",
"0+	c #51700A",
"a+	c #719114",
"b+	c #45321D",
"c+	c #A26E46",
"d+	c #76582B",
"e+	c #DCFFDE",
"f+	c #B69866",
"g+	c #4E6D0A",
"h+	c #4A6904",
"i+	c #5A7C0E",
"j+	c #4C6E18",
"k+	c #577A13",
"l+	c #4C6C00",
"m+	c #5C7E1A",
"n+	c #4E6D01",
"o+	c #5B7E0E",
"p+	c #4C6A00",
"q+	c #6C4F2D",
"r+	c #5D7F0E",
"s+	c #65881D",
"t+	c #4E6E06",
"u+	c #456700",
"v+	c #719327",
"w+	c #355100",
"x+	c #67880D",
"y+	c #6A8B0F",
"z+	c #2F4E00",
"A+	c #648213",
"B+	c #557606",
"C+	c #567402",
"D+	c #5A7A0A",
"E+	c #62851D",
"F+	c #365500",
"G+	c #67870B",
"H+	c #6E9014",
"I+	c #60831A",
"J+	c #5D7C0C",
"K+	c #456500",
"L+	c #678709",
"M+	c #5E7F02",
"N+	c #5C8010",
"O+	c #527000",
"P+	c #6B8B0E",
"Q+	c #577606",
"R+	c #516F00",
"S+	c #6A8C27",
"T+	c #72951A",
"U+	c #5A4165",
"V+	c #537400",
"W+	c #567401",
"X+	c #557718",
"Y+	c #608003",
"Z+	c #395700",
"`+	c #668509",
" @	c #8C5FA4",
".@	c #B086CB",
"+@	c #C59DE2",
"@@	c #6A8C13",
"#@	c #456400",
"$@	c #355400",
"%@	c #6F901F",
"&@	c #557600",
"*@	c #5E7C00",
"=@	c #5F7F04",
"-@	c #3D5D00",
";@	c #6F931C",
">@	c #B4B8B7",
",@	c #3E5D00",
"'@	c #506F00",
")@	c #628416",
"!@	c #385800",
"~@	c #638515",
"{@	c #628311",
"]@	c #3C5A00",
"^@	c #5C7E0E",
"/@	c #55760D",
"(@	c #6B8D14",
"_@	c #D6DAD9",
":@	c #FFFFFF",
"<@	c #6E921B",
"[@	c #547400",
"}@	c #62840E",
"|@	c #4D6F08",
"1@	c #325200",
"2@	c #405E00",
"3@	c #476A00",
"4@	c #4D700F",
"5@	c #52740E",
"6@	c #527111",
"7@	c #5A7903",
"8@	c #747676",
"9@	c #567703",
"0@	c #476908",
"a@	c #587702",
"b@	c #446500",
"c@	c #335000",
"d@	c #50710A",
"e@	c #57790E",
"f@	c #5F8003",
"g@	c #486400",
"h@	c #547616",
"i@	c #432270",
"j@	c #FFD0DF",
"k@	c #6C6D6D",
"l@	c #618114",
"m@	c #385900",
"n@	c #628622",
"o@	c #62821A",
"p@	c #4A6801",
"q@	c #557708",
"r@	c #436300",
"s@	c #405D00",
"t@	c #5D8004",
"u@	c #304F00",
"v@	c #547600",
"w@	c #5C7D0D",
"x@	c #5E7C01",
"y@	c #682A9D",
"z@	c #555656",
"A@	c #8E2BFF",
"B@	c #FFACD4",
"C@	c #60811A",
"D@	c #517206",
"E@	c #6B8D26",
"F@	c #618318",
"G@	c #557603",
"H@	c #2F4D00",
"I@	c #597A0D",
"J@	c #3C5C00",
"K@	c #57780A",
"L@	c #607E04",
"M@	c #5A7A0D",
"N@	c #557502",
"O@	c #416000",
"P@	c #7528E0",
"Q@	c #FF7DC1",
"R@	c #517106",
"S@	c #3A5B00",
"T@	c #5E8021",
"U@	c #4B6D0A",
"V@	c #507108",
"W@	c #5F810E",
"X@	c #557616",
"Y@	c #4E6C00",
"Z@	c #395900",
"`@	c #663450",
" #	c #6A8C16",
".#	c #63820D",
"+#	c #507200",
"@#	c #668818",
"##	c #50720A",
"$#	c #5C7E0A",
"%#	c #446100",
"&#	c #5F8016",
"*#	c #8E4E8F",
"=#	c #B268A9",
"-#	c #68880F",
";#	c #57770A",
">#	c #65840A",
",#	c #6A8E1F",
"'#	c #324F00",
")#	c #57790A",
"!#	c #7B9D27",
"~#	c #59790D",
"{#	c #507004",
"]#	c #5B7A02",
"^#	c #597B0F",
"/#	c #799A1F",
"(#	c #5E7F0A",
"_#	c #5E8222",
":#	c #65870E",
"<#	c #5A7C08",
"[#	c #395A00",
"}#	c #698B0F",
"|#	c #5B7C15",
"1#	c #4D6D04",
"2#	c #617F02",
"3#	c #4D700E",
"4#	c #6E9231",
"5#	c #4A6700",
"6#	c #527101",
"7#	c #73961E",
"8#	c #587C1B",
"9#	c #658508",
"0#	c #668716",
"a#	c #557608",
"b#	c #517304",
"c#	c #4C6C04",
"d#	c #416200",
"e#	c #4A6C01",
"  . + @ # $ % & * = - ; > , ' ) ! ~ { ] ] ] ] ^ / ( _ : < [ } | ",
"1 2 3 4 5 6 7 8 9 0 a b ~ c ] ] ] ] ] d d d d ] ] e f g h i j k ",
"l m n o < p q r s @ t u ] ] d d v v w w w w w v d ] x y z A B C ",
"D E F G H I J K L M N ] d v v w w w w w w v v d ] O P Q R S T n ",
"U S V W X Y Z `  ...] d v v w w w w w v v d d ] +.@.#.J n $.%.&.",
"z *.=.-.;.&.>.,.'.] d v v w w w w w v d d ] ] ] ).!.~.{.].g ^./.",
"(._.p :.<.[.}.|.1.] 2.2.v w w w w w w w v 2.2.] 3.4.g 5.6.7.8.9.",
"0.a.n b.B c.d.] ] ] 2.e.e.e.f.f.f.f.f.e.e.e.2.] ] ] g.h.J i.j.k.",
"l.m.>.m n.] ] d d d v v e.f.f.f.f.f.f.f.e.v v d d d ] ] o.- p.q.",
"z r., s.] d d v w w w w w w w w w w w w w w w v v d d d ] t.u.v.",
"w.g.R i.x.] d d v w w w w w w w w w w w w w w w v v v d d ] y.z.",
"A.$.B.C.D.E.] ] d v v w w w w w w w w w w w v v v d d ] ] F.G.H.",
"I.J.K.L.M.N.O.P.] ] d d v v v v v v v v v d d ] ] ] ] Q.R.S.T.U.",
"F V.W.X.Y.Z.O.P.P.P.] ] ] ] ] ] ] ] ] ] ] ] ] P.P.`.O. +.+++@+#+",
"$+%+&+c *+=+O.`.P.P.`.-+;+>+,+'+-+P.P.`.-+P.P.P.P.`.O.)+!+~+{+]+",
"^+/+(+_+b.:+<+O.P.`.[+}+|+1+2+[+3+4+P.`.-+P.P.P.4+P.`.O.m 5+z.S ",
"6+7+8+F.m 9+0+a+b+c+[+}+d+d+e+[+-+4+P.`.f+P.4+4+P.P.P.O.g+h+^.i+",
"j+k+l+m+n+o+p+F.b+q+f+[+[+[+[+-+-+P.P.`.b+P.P.4+P.P.P.P.O.r+~ s+",
"t+u+v+%.w+x+y+J z+b+c+f+-+-+-+-+-+P.P.`.q+`.P.P.P.P.P.P.P.O.A+B+",
"C+D+E+Y F+G+H+^ I+J+b+q+c+c+f+f+P.P.P.q+q+`.P.P.P.P.P.P.P.O.K+V.",
"5+L+n M+N+O+P+Q+R+S+T+b+b+b+b+b+P.P.`.U+U+O.`.P.P.`.P.P.P.O.r+V+",
": W+X+E.V+O+Y+Z+`+K+U+ @ @ @ @.@P.`.+@+@.@O.`.P.P.`.P.P.P.O.@@#@",
"$@%@u.&@*@8 =@-@;@, U+ @.@+@+@P.`.>@>@>@+@.@O.`.`.O.`.P.`.O.Y ,@",
"'@)@!@~@{@]@^@/@(@: U+ @ @.@.@_@>@_@:@_@.@+@ @O.O.<@O.`.O.[@}@|@",
"1@2@l+3@^.4@5@6@E 7@, 8@>@>@_@8@_@:@:@_@ @+@.@ @U+9@0@O.J q @ a@",
"y g b@/+c@d@e@g f@g@h@i@>@_@b+-+j@:@:@>@k@+@.@ @U+l@m@n@o@p@#@q@",
"r@s@t@| u@>.v@w@x@K+i@y@z@A@b+-+-+B@_@k@y@+@.@ @ @U+: C@D@E@F@G@",
"H@X ,@I@J@K@L@M@N@O@i@y@z@P@b+c+f+B@Q@z@y@+@+@.@ @U+R@S@}.T@4.b ",
"U@V@@ C.D , W@X@Y@Z@`@i@z@y@z@b+Q@Q@`@P@z@.@+@.@ @U+ #.#+#@#].C+",
"##B $#Z@: e@%#&#Z Y.`@*#i@z@y@y@`@`@=#=#*#`@+@U+U+-#;#>#,#u+C.'#",
"~ )#!#r@z ~#{#]#^#- /#`@`@`@i@i@`@=#=#=#*#`@U+(#_#:#<#+#E@>.%+[#",
"V.'#}#|#/+@.1#2#3#B V.4#5#m 6#O@7#`@`@`@`@X 8#9#0#a#L b#g c#d#e#"};
