/* XPM */
static char * C:\Users\Leonardo\Downloads\assets\player\right_xpm[] = {
"32 32 401 2",
"  	c #517104",
". 	c #6E9114",
"+ 	c #68870A",
"@ 	c #436100",
"# 	c #527404",
"$ 	c #638414",
"% 	c #5C7D0A",
"& 	c #618216",
"* 	c #84A62B",
"= 	c #55760C",
"- 	c #383739",
"; 	c #69890C",
"> 	c #56770C",
", 	c #486600",
"' 	c #517000",
") 	c #4F7006",
"! 	c #547200",
"~ 	c #6C9031",
"{ 	c #65860A",
"] 	c #50720F",
"^ 	c #57780D",
"/ 	c #668A1A",
"( 	c #5E7D0C",
"_ 	c #4C6F0E",
": 	c #486800",
"< 	c #3D5E00",
"[ 	c #668505",
"} 	c #365400",
"| 	c #426300",
"1 	c #5A7B0E",
"2 	c #61830A",
"3 	c #5D7C04",
"4 	c #4B6B06",
"5 	c #365700",
"6 	c #618014",
"7 	c #416100",
"8 	c #557400",
"9 	c #5B4066",
"0 	c #6B8D18",
"a 	c #60831D",
"b 	c #506D00",
"c 	c #3E5D00",
"d 	c #4C6C0B",
"e 	c #476800",
"f 	c #577500",
"g 	c #5F8015",
"h 	c #3B5A00",
"i 	c #56770A",
"j 	c #5B7806",
"k 	c #4E6B00",
"l 	c #436600",
"m 	c #608208",
"n 	c #4A6A00",
"o 	c #496900",
"p 	c #476806",
"q 	c #517103",
"r 	c #5A7B06",
"s 	c #7737A2",
"t 	c #9735CC",
"u 	c #557506",
"v 	c #476700",
"w 	c #4B6900",
"x 	c #567400",
"y 	c #6E8D10",
"z 	c #5B7A00",
"A 	c #3D5C00",
"B 	c #466500",
"C 	c #63840A",
"D 	c #3E5C00",
"E 	c #567708",
"F 	c #426100",
"G 	c #577600",
"H 	c #547406",
"I 	c #597B08",
"J 	c #52710D",
"K 	c #698B1C",
"L 	c #476600",
"M 	c #5B7A08",
"N 	c #6E911F",
"O 	c #476400",
"P 	c #557403",
"Q 	c #668707",
"R 	c #466400",
"S 	c #496A00",
"T 	c #4F6E00",
"U 	c #54760A",
"V 	c #547300",
"W 	c #51740F",
"X 	c #5A7A01",
"Y 	c #436200",
"Z 	c #4E6D00",
"` 	c #496700",
" .	c #426200",
"..	c #678811",
"+.	c #496800",
"@.	c #6A8B14",
"#.	c #527100",
"$.	c #648306",
"%.	c #446200",
"&.	c #638518",
"*.	c #5B7D18",
"=.	c #5D7E0A",
"-.	c #6F9115",
";.	c #4E700A",
">.	c #4C6E00",
",.	c #658718",
"'.	c #6D8F1F",
").	c #72951C",
"!.	c #476900",
"~.	c #587802",
"{.	c #345000",
"].	c #4D6E00",
"^.	c #577700",
"/.	c #5F8116",
"(.	c #4C6B03",
"_.	c #305000",
":.	c #527301",
"<.	c #4F6F00",
"[.	c #658723",
"}.	c #678814",
"|.	c #5B7E13",
"1.	c #4F7106",
"2.	c #FF85AF",
"3.	c #5C7F0E",
"4.	c #4B6B00",
"5.	c #53740A",
"6.	c #5F800F",
"7.	c #52730D",
"8.	c #64871A",
"9.	c #59780C",
"0.	c #4D6E01",
"a.	c #466503",
"b.	c #5E800C",
"c.	c #4F6E0A",
"d.	c #688A15",
"e.	c #FFB2C9",
"f.	c #FFD5DB",
"g.	c #476500",
"h.	c #315000",
"i.	c #446300",
"j.	c #4F7003",
"k.	c #486908",
"l.	c #587B0F",
"m.	c #446603",
"n.	c #5D7F0A",
"o.	c #4F7000",
"p.	c #3A5800",
"q.	c #375700",
"r.	c #456506",
"s.	c #466600",
"t.	c #5A7C0D",
"u.	c #456300",
"v.	c #547611",
"w.	c #4B6A00",
"x.	c #314E00",
"y.	c #506F08",
"z.	c #5D7C06",
"A.	c #4D6C00",
"B.	c #335400",
"C.	c #425F00",
"D.	c #4D6D00",
"E.	c #587901",
"F.	c #486700",
"G.	c #446301",
"H.	c #729218",
"I.	c #506F02",
"J.	c #587A04",
"K.	c #456704",
"L.	c #6A8C23",
"M.	c #557200",
"N.	c #608006",
"O.	c #7F8164",
"P.	c #42422E",
"Q.	c #54740C",
"R.	c #749416",
"S.	c #4D6C08",
"T.	c #5A7900",
"U.	c #6C8C0C",
"V.	c #4E6E00",
"W.	c #50730F",
"X.	c #3A5900",
"Y.	c #3E5E00",
"Z.	c #597C0E",
"`.	c #616045",
" +	c #537506",
".+	c #7EA227",
"++	c #3F6100",
"@+	c #5E7F06",
"#+	c #5E7D08",
"$+	c #4A6900",
"%+	c #4C6D00",
"&+	c #638716",
"*+	c #375500",
"=+	c #5D7E0D",
"-+	c #5F8118",
";+	c #A6AA8C",
">+	c #C3B380",
",+	c #534721",
"'+	c #D9D9D9",
")+	c #2E1E22",
"!+	c #D9D9DD",
"~+	c #587604",
"{+	c #46660E",
"]+	c #4B6800",
"^+	c #5B7C0F",
"/+	c #375900",
"(+	c #405F00",
"_+	c #648206",
":+	c #415F00",
"<+	c #A107E9",
"[+	c #B20FFF",
"}+	c #EEF5ED",
"|+	c #514B46",
"1+	c #A8A1A3",
"2+	c #CFC299",
"3+	c #527300",
"4+	c #638205",
"5+	c #4E6E0A",
"6+	c #2F4F00",
"7+	c #527203",
"8+	c #5F7E00",
"9+	c #B69866",
"0+	c #DCFFDE",
"a+	c #76582B",
"b+	c #A26E46",
"c+	c #45321D",
"d+	c #698B14",
"e+	c #62830D",
"f+	c #4E6D0A",
"g+	c #4A6904",
"h+	c #5A7C0E",
"i+	c #4C6E18",
"j+	c #577A13",
"k+	c #4C6C00",
"l+	c #5C7E1A",
"m+	c #6C4F2D",
"n+	c #6F9123",
"o+	c #406300",
"p+	c #5D7F0E",
"q+	c #65881D",
"r+	c #4E6E06",
"s+	c #456700",
"t+	c #719327",
"u+	c #68890D",
"v+	c #395700",
"w+	c #385800",
"x+	c #527101",
"y+	c #668816",
"z+	c #648213",
"A+	c #557606",
"B+	c #567402",
"C+	c #5A7A0A",
"D+	c #62851D",
"E+	c #61810C",
"F+	c #507000",
"G+	c #3F5F00",
"H+	c #60810F",
"I+	c #749623",
"J+	c #89AB39",
"K+	c #456500",
"L+	c #678709",
"M+	c #5A4165",
"N+	c #3C5D00",
"O+	c #5A7C10",
"P+	c #618321",
"Q+	c #547710",
"R+	c #537400",
"S+	c #567401",
"T+	c #557718",
"U+	c #B086CB",
"V+	c #8C5FA4",
"W+	c #557600",
"X+	c #3B5B00",
"Y+	c #4E6E01",
"Z+	c #52730A",
"`+	c #3D5A00",
" @	c #51730E",
".@	c #5A7B08",
"+@	c #6A8C13",
"@@	c #456400",
"#@	c #355400",
"$@	c #6F901F",
"%@	c #C59DE2",
"&@	c #B4B8B7",
"*@	c #D6DAD9",
"=@	c #567704",
"-@	c #527306",
";@	c #466705",
">@	c #597C1C",
",@	c #395900",
"'@	c #67860C",
")@	c #506F00",
"!@	c #628416",
"~@	c #638515",
"{@	c #55760D",
"]@	c #FFFFFF",
"^@	c #507100",
"/@	c #5B7B01",
"(@	c #6E921B",
"_@	c #4F7014",
":@	c #507103",
"<@	c #547400",
"[@	c #62840E",
"}@	c #4D6F08",
"|@	c #325200",
"1@	c #405E00",
"2@	c #476A00",
"3@	c #52740E",
"4@	c #747676",
"5@	c #456600",
"6@	c #567703",
"7@	c #476908",
"8@	c #597B0A",
"9@	c #587702",
"0@	c #446500",
"a@	c #335000",
"b@	c #50710A",
"c@	c #FFACD4",
"d@	c #FFD0DF",
"e@	c #432270",
"f@	c #547403",
"g@	c #3F5E00",
"h@	c #618114",
"i@	c #385900",
"j@	c #628622",
"k@	c #62821A",
"l@	c #4A6801",
"m@	c #557708",
"n@	c #436300",
"o@	c #405D00",
"p@	c #5D8004",
"q@	c #304F00",
"r@	c #555656",
"s@	c #7528E0",
"t@	c #8E2BFF",
"u@	c #4C6E08",
"v@	c #678918",
"w@	c #60811A",
"x@	c #517206",
"y@	c #6B8D26",
"z@	c #618318",
"A@	c #557603",
"B@	c #2F4D00",
"C@	c #597A0D",
"D@	c #3C5C00",
"E@	c #7D9F28",
"F@	c #597B11",
"G@	c #517106",
"H@	c #3A5B00",
"I@	c #5E8021",
"J@	c #4B6D0A",
"K@	c #507108",
"L@	c #FF7DC1",
"M@	c #682A9D",
"N@	c #663450",
"O@	c #3A5C00",
"P@	c #5F7E08",
"Q@	c #5A7A14",
"R@	c #6A8C16",
"S@	c #63820D",
"T@	c #507200",
"U@	c #668818",
"V@	c #50720A",
"W@	c #5C7E0A",
"X@	c #57790E",
"Y@	c #8E4E8F",
"Z@	c #794D7A",
"`@	c #B268A9",
" #	c #68880F",
".#	c #57770A",
"+#	c #65840A",
"@#	c #6A8E1F",
"##	c #324F00",
"$#	c #57790A",
"%#	c #7B9D27",
"&#	c #59790D",
"*#	c #507004",
"=#	c #436404",
"-#	c #5E7E04",
";#	c #5E7F0A",
">#	c #5E8222",
",#	c #65870E",
"'#	c #5A7C08",
")#	c #395A00",
"!#	c #698B0F",
"~#	c #5B7C15",
"{#	c #4D6D04",
"]#	c #617F02",
"^#	c #6E9231",
"/#	c #4A6700",
"(#	c #416000",
"_#	c #73961E",
":#	c #63810A",
"<#	c #587C1B",
"[#	c #658508",
"}#	c #668716",
"|#	c #557608",
"1#	c #517304",
"2#	c #4C6C04",
"3#	c #416200",
"4#	c #4A6C01",
"  . + @ # $ % & * = - - - - ; > , ' ) ! ~ { ] ^ / ( _ : < [ } | ",
"1 2 3 4 5 6 7 8 - - 9 9 9 9 - - - - - 0 a b c d e f g h i j k l ",
"m n o p < q r - 9 s t t t t t s s 9 9 - - u v w x y z A B C D E ",
"F G H I J K L M - 9 s s t t t t t t s s 9 - N O n P Q R S T U o ",
"V T W X Y Z `  ...- 9 9 s s t t t t t s s 9 - +.@.#.$.L o %.e &.",
"B *.=.-.;.&.>.,.'.- - - 9 9 s t t t t t s s 9 - ).!.~.{.].h ^./.",
"(._.q :.<.[.}.|.1.- 2.2.s t t t t t t t s 2.2.- 3.4.h 5.6.7.8.9.",
"0.a.o b.D c.d.- - - 2.e.e.e.f.f.f.f.f.e.e.e.2.- - - g.h.L i.j.k.",
"l.m.>.n n.- - 9 9 9 s s e.f.f.f.f.f.f.f.e.s s 9 9 9 - - o.+.p.q.",
"B r.s.t.- 9 9 9 s s t t t t t t t t t t t t t t t s 9 9 - u.v.w.",
"x.g.S - 9 9 s s s t t t t t t t t t t t t t t t s 9 9 - F y.z.A.",
"B.%.C.D.- - 9 9 s s s t t t t t t t t t t t s s 9 - - R E.F.G.H.",
"I.J.K.L.M.N.- - - - 9 9 s s s s s s s s s 9 9 - - O.P.Q.R.S.T.U.",
"H V.W.X.Y.Z.P.`.O.O.- - - - - - - - - - - - - O.O.O.P. +.+++@+#+",
"$+%+&+*+=+-+P.`.;+O.O.O.>+`.O.O.>+,+'+)+!+>+`.O.O.`.P.~+E.{+]+^+",
"/+(+_+:+b.P.`.O.O.;+;+O.>+`.O.;+<+[+}+|+1+2+[+`.O.P.3+4+n 5+A.T ",
"6+7+8+F.n P.O.O.O.;+O.O.9+`.O.;+>+[+0+a+a+2+[+b+c+d++.e+f+g+^.h+",
"i+j+k+l+P.`.O.O.O.O.O.O.c+`.O.O.>+>+[+[+[+[+9+m+c+V n+7 o+p+' q+",
"r+s+t+P.`.O.O.O.`.O.O.`.m+`.O.O.>+>+>+>+>+9+b+c+3+u+v+w+x+y+z+A+",
"B+C+D+P.`.O.O.`.`.O.O.`.m+m+O.O.O.9+9+b+b+m+c+E+c F+G+H+I+J+K+V.",
"5+L+o P.`.O.`.`.`.O.`.P.M+M+`.O.O.c+c+c+c+c+N+' o O+P+ .Z Q+p+R+",
": S+T+P.`.`.`.P.`.`.`.P.U+U+U+`.O.U+V+V+V+V+M+W+X+Y+Z+`+ @.@+@@@",
"#@$@v.P.`.`.`.P.P.`.P.%@&@*@*@U+`.O.%@%@U+V+M+=@-@;@>@,@L '@Z c ",
")@!@w+~@P.`.P.{@P.P.%@*@]@]@*@&@*@U+U+U+V+V+M+^@/@(@_@7 :@<@[@}@",
"|@1@k+2@^.P.3@M+V+%@*@]@]@*@4@4@&@*@*@&@&@4@L F.5@6@7@8@L r @ 9@",
"A h 0@(+a@b@M+V+U+%@c@d@d@4@*@*@*@]@]@*@&@e@f@g@<@h@i@j@k@l@@@m@",
"n@o@p@| q@>.M+U+%@c@>+>+b+c+r@s@r@s@r@t@r@s@e@u@v@g@: w@x@y@z@A@",
"B@Y c C@D@M+V+U+%@c@b+b+c+s@r@t@r@t@r@t@r@t@e@b@E@F@G@H@}.I@4.x ",
"J@K@@ D.F M+V+U+%@L@L@c+r@M@r@s@r@t@r@>+9+N@j.O@P@Q@R@S@T@U@].B+",
"V@D W@,@: X@M+U+%@N@N@N@Y@Y@N@e@N@Z@Y@Y@`@`@N@%.^@ #.#+#@#s+D.##",
"' $#%#n@B &#*#M+U+M+M+M+N@N@N@=#-#N@Y@`@`@`@N@;#>#,#'#T@y@>.%+)#",
"V.##!#~#(+#.{#]#M+D V.^#/#n x+(#_#:#N@N@N@N@<#[#}#|#5@1#h 2#3#4#"};
