/* XPM */
static char * C:\Users\Leonardo\Downloads\assets\player\up_xpm[] = {
"32 32 331 2",
"  	c #517104",
". 	c #6E9114",
"+ 	c #68870A",
"@ 	c #436100",
"# 	c #527404",
"$ 	c #638414",
"% 	c #5C7D0A",
"& 	c #618216",
"* 	c #84A62B",
"= 	c #383739",
"- 	c #4F7006",
"; 	c #547200",
"> 	c #6C9031",
", 	c #65860A",
"' 	c #50720F",
") 	c #57780D",
"! 	c #668A1A",
"~ 	c #5E7D0C",
"{ 	c #4C6F0E",
"] 	c #486800",
"^ 	c #3D5E00",
"/ 	c #668505",
"( 	c #365400",
"_ 	c #426300",
": 	c #5A7B0E",
"< 	c #61830A",
"[ 	c #5D7C04",
"} 	c #4B6B06",
"| 	c #365700",
"1 	c #618014",
"2 	c #416100",
"3 	c #5B4066",
"4 	c #7737A2",
"5 	c #60831D",
"6 	c #506D00",
"7 	c #3E5D00",
"8 	c #4C6C0B",
"9 	c #476800",
"0 	c #577500",
"a 	c #5F8015",
"b 	c #3B5A00",
"c 	c #56770A",
"d 	c #5B7806",
"e 	c #4E6B00",
"f 	c #436600",
"g 	c #608208",
"h 	c #4A6A00",
"i 	c #496900",
"j 	c #476806",
"k 	c #517103",
"l 	c #9735CC",
"m 	c #557506",
"n 	c #476700",
"o 	c #4B6900",
"p 	c #567400",
"q 	c #6E8D10",
"r 	c #5B7A00",
"s 	c #3D5C00",
"t 	c #466500",
"u 	c #63840A",
"v 	c #3E5C00",
"w 	c #567708",
"x 	c #426100",
"y 	c #577600",
"z 	c #547406",
"A 	c #597B08",
"B 	c #52710D",
"C 	c #698B1C",
"D 	c #476600",
"E 	c #6E911F",
"F 	c #476400",
"G 	c #557403",
"H 	c #668707",
"I 	c #466400",
"J 	c #496A00",
"K 	c #4F6E00",
"L 	c #54760A",
"M 	c #547300",
"N 	c #51740F",
"O 	c #5A7A01",
"P 	c #436200",
"Q 	c #4E6D00",
"R 	c #496700",
"S 	c #426200",
"T 	c #496800",
"U 	c #6A8B14",
"V 	c #527100",
"W 	c #648306",
"X 	c #446200",
"Y 	c #638518",
"Z 	c #5B7D18",
"` 	c #5D7E0A",
" .	c #6F9115",
"..	c #4E700A",
"+.	c #4C6E00",
"@.	c #658718",
"#.	c #FF85AF",
"$.	c #799B1F",
"%.	c #72951C",
"&.	c #476900",
"*.	c #587802",
"=.	c #345000",
"-.	c #4D6E00",
";.	c #577700",
">.	c #5F8116",
",.	c #4C6B03",
"'.	c #305000",
").	c #527301",
"!.	c #4F6F00",
"~.	c #658723",
"{.	c #FFB2C9",
"].	c #FFD5DB",
"^.	c #4B6B00",
"/.	c #53740A",
"(.	c #5F800F",
"_.	c #52730D",
":.	c #64871A",
"<.	c #59780C",
"[.	c #4D6E01",
"}.	c #466503",
"|.	c #5E800C",
"1.	c #315000",
"2.	c #446300",
"3.	c #4F7003",
"4.	c #486908",
"5.	c #587B0F",
"6.	c #446603",
"7.	c #4F7000",
"8.	c #3A5800",
"9.	c #375700",
"0.	c #456506",
"a.	c #456300",
"b.	c #547611",
"c.	c #4B6A00",
"d.	c #314E00",
"e.	c #476500",
"f.	c #506F08",
"g.	c #5D7C06",
"h.	c #4D6C00",
"i.	c #335400",
"j.	c #425F00",
"k.	c #4D6D00",
"l.	c #71931B",
"m.	c #415E00",
"n.	c #587901",
"o.	c #486700",
"p.	c #446301",
"q.	c #729218",
"r.	c #506F02",
"s.	c #587A04",
"t.	c #456704",
"u.	c #6A8C23",
"v.	c #557200",
"w.	c #42422E",
"x.	c #616045",
"y.	c #7F8164",
"z.	c #7EA039",
"A.	c #54740C",
"B.	c #749416",
"C.	c #4D6C08",
"D.	c #5A7900",
"E.	c #6C8C0C",
"F.	c #4E6E00",
"G.	c #50730F",
"H.	c #3A5900",
"I.	c #3E5E00",
"J.	c #537200",
"K.	c #537506",
"L.	c #7EA227",
"M.	c #3F6100",
"N.	c #5E7F06",
"O.	c #5E7D08",
"P.	c #4A6900",
"Q.	c #4C6D00",
"R.	c #638716",
"S.	c #375500",
"T.	c #A6AA8C",
"U.	c #587604",
"V.	c #46660E",
"W.	c #4B6800",
"X.	c #5B7C0F",
"Y.	c #375900",
"Z.	c #405F00",
"`.	c #648206",
" +	c #415F00",
".+	c #638205",
"++	c #4E6E0A",
"@+	c #2F4F00",
"#+	c #527203",
"$+	c #5F7E00",
"%+	c #62830D",
"&+	c #4E6D0A",
"*+	c #4A6904",
"=+	c #5A7C0E",
"-+	c #4C6E18",
";+	c #577A13",
">+	c #4C6C00",
",+	c #5C7E1A",
"'+	c #406300",
")+	c #5D7F0E",
"!+	c #517000",
"~+	c #65881D",
"{+	c #4E6E06",
"]+	c #456700",
"^+	c #719327",
"/+	c #385800",
"(+	c #527101",
"_+	c #668816",
":+	c #648213",
"<+	c #557606",
"[+	c #567402",
"}+	c #5A7A0A",
"|+	c #62851D",
"1+	c #60810F",
"2+	c #749623",
"3+	c #89AB39",
"4+	c #456500",
"5+	c #678709",
"6+	c #5E7F02",
"7+	c #547710",
"8+	c #537400",
"9+	c #567401",
"0+	c #557718",
"a+	c #4D6B00",
"b+	c #52730A",
"c+	c #3D5A00",
"d+	c #51730E",
"e+	c #5A7B08",
"f+	c #6A8C13",
"g+	c #456400",
"h+	c #355400",
"i+	c #6F901F",
"j+	c #557600",
"k+	c #5E7C00",
"l+	c #747676",
"m+	c #5A4165",
"n+	c #597C1C",
"o+	c #395900",
"p+	c #67860C",
"q+	c #506F00",
"r+	c #628416",
"s+	c #638515",
"t+	c #663450",
"u+	c #FF7DC1",
"v+	c #8C5FA4",
"w+	c #C59DE2",
"x+	c #507103",
"y+	c #547400",
"z+	c #62840E",
"A+	c #4D6F08",
"B+	c #325200",
"C+	c #405E00",
"D+	c #476A00",
"E+	c #45321D",
"F+	c #C3B380",
"G+	c #B086CB",
"H+	c #597B0A",
"I+	c #5A7B06",
"J+	c #587702",
"K+	c #446500",
"L+	c #628622",
"M+	c #62821A",
"N+	c #4A6801",
"O+	c #557708",
"P+	c #436300",
"Q+	c #405D00",
"R+	c #5D8004",
"S+	c #304F00",
"T+	c #60811A",
"U+	c #517206",
"V+	c #6B8D26",
"W+	c #618318",
"X+	c #557603",
"Y+	c #2F4D00",
"Z+	c #597A0D",
"`+	c #3C5C00",
" @	c #517106",
".@	c #3A5B00",
"+@	c #678814",
"@@	c #5E8021",
"#@	c #4B6D0A",
"$@	c #507108",
"%@	c #466600",
"&@	c #5A7A14",
"*@	c #6A8C16",
"=@	c #63820D",
"-@	c #507200",
";@	c #668818",
">@	c #50720A",
",@	c #5C7E0A",
"'@	c #57790E",
")@	c #446100",
"!@	c #5F8016",
"~@	c #507100",
"{@	c #68880F",
"]@	c #57770A",
"^@	c #65840A",
"/@	c #6A8E1F",
"(@	c #324F00",
"_@	c #57790A",
":@	c #7B9D27",
"<@	c #59790D",
"[@	c #507004",
"}@	c #5B7A02",
"|@	c #597B0F",
"1@	c #B268A9",
"2@	c #8E4E8F",
"3@	c #436404",
"4@	c #3D5D00",
"5@	c #5E7F0A",
"6@	c #5E8222",
"7@	c #65870E",
"8@	c #5A7C08",
"9@	c #395A00",
"0@	c #698B0F",
"a@	c #5B7C15",
"b@	c #4D6D04",
"c@	c #617F02",
"d@	c #4D700E",
"e@	c #416000",
"f@	c #73961E",
"g@	c #5B7D0A",
"h@	c #587C1B",
"i@	c #658508",
"j@	c #668716",
"k@	c #557608",
"l@	c #456600",
"m@	c #517304",
"n@	c #4C6C04",
"o@	c #416200",
"p@	c #4A6C01",
"  . + @ # $ % & * = = = = = = = = = - ; > , ' ) ! ~ { ] ^ / ( _ ",
": < [ } | 1 2 = = 3 3 4 4 4 4 4 3 3 = = 5 6 7 8 9 0 a b c d e f ",
"g h i j ^ k = 3 4 4 l l l l l l l 4 4 3 = m n o p q r s t u v w ",
"x y z A B C D = = 3 4 4 4 l l l l l 4 4 3 = E F h G H I J K L i ",
"M K N O P Q R S = = = 3 3 4 l l l l l 4 4 3 = T U V W D i X 9 Y ",
"t Z `  ...Y +.@.= #.#.4 l l l l l l l 4 #.#.= $.%.&.*.=.-.b ;.>.",
",.'.k ).!.~.= = = #.{.{.{.].].].].].{.{.{.#.= = = ^.b /.(._.:.<.",
"[.}.i |.= = 3 3 3 4 4 {.].].].].].].].{.4 4 3 3 3 = = 1.D 2.3.4.",
"5.6.+.= 3 3 3 4 4 l l l l l l l l l l l l l 4 4 3 3 3 = 7.T 8.9.",
"t 0.= 3 3 4 4 4 l l l l l l l l l l l l l l l 4 4 4 3 3 = a.b.c.",
"d.e.J = = 3 3 4 4 4 l l l l l l l l l l l 4 4 4 3 3 = = x f.g.h.",
"i.X j.k.l.= = = = 3 3 4 4 4 4 4 4 4 4 4 3 3 = = = = m.I n.o.p.q.",
"r.s.t.u.v.w.x.y.y.= = = = = = = = = = = = = y.y.x.w.z.A.B.C.D.E.",
"z F.G.H.I.w.x.y.y.y.y.y.y.y.y.y.y.y.y.y.y.y.y.y.x.w.J.K.L.M.N.O.",
"P.Q.R.S.w.x.y.y.T.y.y.y.y.y.y.y.y.y.y.y.y.y.T.y.y.x.w.U.n.V.W.X.",
"Y.Z.`. +w.x.y.y.y.T.y.y.y.y.y.y.y.y.y.y.y.T.y.y.y.x.w..+h ++h.K ",
"@+#+$+o.w.x.y.x.y.y.y.T.T.y.T.T.T.y.T.T.y.y.y.x.y.x.w.%+&+*+;.=+",
"-+;+>+,+w.x.y.x.y.y.y.y.y.y.T.T.T.y.y.y.y.y.y.x.y.x.w.2 '+)+!+~+",
"{+]+^+9 w.x.x.x.y.y.x.y.y.y.y.y.y.y.y.y.x.y.y.x.x.x.w./+(+_+:+<+",
"[+}+|+Q w.x.x.x.x.y.x.y.y.x.y.y.y.x.y.y.x.y.x.x.x.x.w.1+2+3+4+F.",
"++5+i 6+w.x.x.x.x.x.x.x.y.x.x.y.x.x.y.x.x.x.x.x.x.x.w.S Q 7+)+8+",
"] 9+0+a+8+w.x.w.x.x.w.x.x.x.x.x.x.x.x.x.w.x.x.w.x.w.b+c+d+e+f+g+",
"h+i+b.j+k+l+w.m+w.w.w.x.x.w.x.x.x.w.x.x.w.w.w.m+w.l+n+o+D p+Q 7 ",
"q+r+/+s+t+u+m+v+m+v+v+w.w.w+w.w.w.w+w.w.v+v+m+v+m+u+t+2 x+y+z+A+",
"B+C+>+D+E+F+m+v+m+v+G+G+G+w+w+w+w+w+G+G+G+v+m+v+m+F+E+H+D I+@ J+",
"s b K+Z.E+F+m+v+v+v+G+G+w+w+w+w+w+w+w+G+G+v+v+v+m+F+E+L+M+N+g+O+",
"P+Q+R+_ S+m+v+v+v+v+G+G+w+w+w+w+w+w+w+G+G+v+v+v+v+m+] T+U+V+W+X+",
"Y+P 7 Z+`+m+v+v+v+G+G+w+w+w+w+w+w+w+w+w+G+G+v+v+v+m+ @.@+@@@^.p ",
"#@$@@ k.x %@m+m+v+G+G+w+w+G+G+G+G+G+w+w+G+G+v+m+m+&@*@=@-@;@-.[+",
">@v ,@o+] '@)@!@m+m+m+m+m+m+m+m+m+m+m+m+m+m+m+X ~@{@]@^@/@]+k.(@",
"!+_@:@P+t <@[@}@|@T t+1@1@2@t+3@t+2@1@1@t+c 4@5@6@7@8@-@V++.Q.9@",
"F.(@0@a@Z.V b@c@d@v F.t+t+t+(+e@f@t+t+t+g@P h@i@j@k@l@m@b n@o@p@"};
