/* XPM */
static char * C:\Users\Leonardo\Downloads\assets\collect\collect_xpm[] = {
"32 32 592 2",
"  	c #517104",
". 	c #6E9114",
"+ 	c #68870A",
"@ 	c #436100",
"# 	c #527404",
"$ 	c #638414",
"% 	c #5C7D0A",
"& 	c #618216",
"* 	c #84A62B",
"= 	c #55760C",
"- 	c #496800",
"; 	c #597A0A",
"> 	c #527102",
", 	c #466600",
"' 	c #69890C",
") 	c #56770C",
"! 	c #486600",
"~ 	c #517000",
"{ 	c #4F7006",
"] 	c #547200",
"^ 	c #6C9031",
"/ 	c #65860A",
"( 	c #50720F",
"_ 	c #57780D",
": 	c #668A1A",
"< 	c #5E7D0C",
"[ 	c #4C6F0E",
"} 	c #486800",
"| 	c #3D5E00",
"1 	c #668505",
"2 	c #365400",
"3 	c #426300",
"4 	c #5A7B0E",
"5 	c #61830A",
"6 	c #5D7C04",
"7 	c #4B6B06",
"8 	c #365700",
"9 	c #618014",
"0 	c #416100",
"a 	c #557400",
"b 	c #698A14",
"c 	c #476700",
"d 	c #5C7D06",
"e 	c #567400",
"f 	c #375500",
"g 	c #557603",
"h 	c #426000",
"i 	c #547500",
"j 	c #5C7B00",
"k 	c #4A6B02",
"l 	c #6B8D18",
"m 	c #60831D",
"n 	c #506D00",
"o 	c #3E5D00",
"p 	c #4C6C0B",
"q 	c #476800",
"r 	c #577500",
"s 	c #5F8015",
"t 	c #3B5A00",
"u 	c #56770A",
"v 	c #5B7806",
"w 	c #4E6B00",
"x 	c #436600",
"y 	c #608208",
"z 	c #4A6A00",
"A 	c #496900",
"B 	c #476806",
"C 	c #517103",
"D 	c #5A7B06",
"E 	c #5F7E08",
"F 	c #6B8D1F",
"G 	c #719218",
"H 	c #7D9F26",
"I 	c #3E5E00",
"J 	c #4C6B03",
"K 	c #406000",
"L 	c #587C11",
"M 	c #567701",
"N 	c #4C6C03",
"O 	c #4F6D00",
"P 	c #456300",
"Q 	c #557506",
"R 	c #4B6900",
"S 	c #6E8D10",
"T 	c #5B7A00",
"U 	c #3D5C00",
"V 	c #466500",
"W 	c #63840A",
"X 	c #3E5C00",
"Y 	c #567708",
"Z 	c #426100",
"` 	c #577600",
" .	c #547406",
"..	c #597B08",
"+.	c #52710D",
"@.	c #698B1C",
"#.	c #476600",
"$.	c #5B7A08",
"%.	c #456600",
"&.	c #648509",
"*.	c #3A5900",
"=.	c #51710C",
"-.	c #804000",
";.	c #517100",
">.	c #406001",
",.	c #446300",
"'.	c #56780A",
").	c #476900",
"!.	c #6E911F",
"~.	c #476400",
"{.	c #557403",
"].	c #668707",
"^.	c #466400",
"/.	c #496A00",
"(.	c #4F6E00",
"_.	c #54760A",
":.	c #547300",
"<.	c #51740F",
"[.	c #5A7A01",
"}.	c #436200",
"|.	c #4E6D00",
"1.	c #496700",
"2.	c #426200",
"3.	c #678811",
"4.	c #769722",
"5.	c #4A6B0C",
"6.	c #456500",
"7.	c #486908",
"8.	c #A0A0A0",
"9.	c #567600",
"0.	c #577602",
"a.	c #678B26",
"b.	c #567500",
"c.	c #516F00",
"d.	c #6A8B14",
"e.	c #527100",
"f.	c #648306",
"g.	c #446200",
"h.	c #638518",
"i.	c #5B7D18",
"j.	c #5D7E0A",
"k.	c #6F9115",
"l.	c #4E700A",
"m.	c #4C6E00",
"n.	c #658718",
"o.	c #6D8F1F",
"p.	c #577804",
"q.	c #4D6D01",
"r.	c #FFFFFF",
"s.	c #D0D0D0",
"t.	c #603000",
"u.	c #B0B0B0",
"v.	c #4A6800",
"w.	c #72962E",
"x.	c #6A8D16",
"y.	c #719111",
"z.	c #799B1F",
"A.	c #72951C",
"B.	c #587802",
"C.	c #345000",
"D.	c #4D6E00",
"E.	c #577700",
"F.	c #5F8116",
"G.	c #305000",
"H.	c #527301",
"I.	c #4F6F00",
"J.	c #658723",
"K.	c #678814",
"L.	c #5B7E13",
"M.	c #4F7106",
"N.	c #4B6C0A",
"O.	c #446502",
"P.	c #5A7C0C",
"Q.	c #74992E",
"R.	c #E0E0E0",
"S.	c #C0C0C0",
"T.	c #62830A",
"U.	c #60820F",
"V.	c #5B7D0D",
"W.	c #64881A",
"X.	c #6A8A0D",
"Y.	c #5C7F0E",
"Z.	c #4B6B00",
"`.	c #53740A",
" +	c #5F800F",
".+	c #52730D",
"++	c #64871A",
"@+	c #59780C",
"#+	c #4D6E01",
"$+	c #466503",
"%+	c #5E800C",
"&+	c #4F6E0A",
"*+	c #688A15",
"=+	c #68891C",
"-+	c #385900",
";+	c #618511",
">+	c #527300",
",+	c #909090",
"'+	c #808080",
")+	c #606060",
"!+	c #404040",
"~+	c #5A7900",
"{+	c #668718",
"]+	c #4B6D00",
"^+	c #638418",
"/+	c #54740A",
"(+	c #476500",
"_+	c #315000",
":+	c #4F7003",
"<+	c #587B0F",
"[+	c #446603",
"}+	c #5D7F0A",
"|+	c #446500",
"1+	c #668A1B",
"2+	c #436500",
"3+	c #537503",
"4+	c #6B8F14",
"5+	c #4B6A00",
"6+	c #7C9E29",
"7+	c #6A8D1C",
"8+	c #517102",
"9+	c #537508",
"0+	c #56750C",
"a+	c #4F731A",
"b+	c #597903",
"c+	c #335300",
"d+	c #4F7000",
"e+	c #3A5800",
"f+	c #375700",
"g+	c #456506",
"h+	c #5A7C0D",
"i+	c #618410",
"j+	c #4F710E",
"k+	c #5B7B0A",
"l+	c #436201",
"m+	c #3D5B00",
"n+	c #57770A",
"o+	c #4F7100",
"p+	c #70931C",
"q+	c #507200",
"r+	c #5D7C0D",
"s+	c #4A6900",
"t+	c #5A7B18",
"u+	c #385700",
"v+	c #7D9F23",
"w+	c #537404",
"x+	c #517204",
"y+	c #547611",
"z+	c #314E00",
"A+	c #6A8A18",
"B+	c #68890B",
"C+	c #4B6C06",
"D+	c #52730A",
"E+	c #4E7000",
"F+	c #587A18",
"G+	c #4E6E00",
"H+	c #547506",
"I+	c #5B7B02",
"J+	c #4F6F0C",
"K+	c #5B7A07",
"L+	c #507000",
"M+	c #436400",
"N+	c #506F08",
"O+	c #5D7C06",
"P+	c #4D6C00",
"Q+	c #335400",
"R+	c #425F00",
"S+	c #4D6D00",
"T+	c #71931B",
"U+	c #4D6B00",
"V+	c #486700",
"W+	c #58790A",
"X+	c #5C7D0C",
"Y+	c #7B9F31",
"Z+	c #55750A",
"`+	c #5B7A04",
" @	c #587903",
".@	c #608216",
"+@	c #3F6000",
"@@	c #587900",
"#@	c #415F00",
"$@	c #62810A",
"%@	c #415E00",
"&@	c #587901",
"*@	c #446301",
"=@	c #729218",
"-@	c #506F02",
";@	c #587A04",
">@	c #456704",
",@	c #6A8C23",
"'@	c #557200",
")@	c #608006",
"!@	c #628308",
"~@	c #6F911F",
"{@	c #486900",
"]@	c #516F07",
"^@	c #608416",
"/@	c #4E6F04",
"(@	c #6A8C1C",
"_@	c #4A6B00",
":@	c #608003",
"<@	c #668823",
"[@	c #375600",
"}@	c #4C6C00",
"|@	c #779825",
"1@	c #7EA039",
"2@	c #54740C",
"3@	c #749416",
"4@	c #4D6C08",
"5@	c #6C8C0C",
"6@	c #50730F",
"7@	c #597C0E",
"8@	c #5A7C1A",
"9@	c #80A433",
"0@	c #58780A",
"a@	c #58790C",
"b@	c #6A8E16",
"c@	c #707070",
"d@	c #7FA32B",
"e@	c #678709",
"f@	c #7EA129",
"g@	c #6D911F",
"h@	c #446400",
"i@	c #537200",
"j@	c #537506",
"k@	c #7EA227",
"l@	c #3F6100",
"m@	c #5E7F06",
"n@	c #5E7D08",
"o@	c #4C6D00",
"p@	c #638716",
"q@	c #5D7E0D",
"r@	c #5F8118",
"s@	c #4F6F02",
"t@	c #69891C",
"u@	c #789925",
"v@	c #638416",
"w@	c #688A1F",
"x@	c #5F7E02",
"y@	c #698C1F",
"z@	c #547508",
"A@	c #587604",
"B@	c #46660E",
"C@	c #4B6800",
"D@	c #5B7C0F",
"E@	c #375900",
"F@	c #405F00",
"G@	c #648206",
"H@	c #63841F",
"I@	c #50710E",
"J@	c #638303",
"K@	c #3A5B00",
"L@	c #E0A8E0",
"M@	c #6F9122",
"N@	c #567603",
"O@	c #587708",
"P@	c #456800",
"Q@	c #547403",
"R@	c #638205",
"S@	c #4E6E0A",
"T@	c #2F4F00",
"U@	c #527203",
"V@	c #5F7E00",
"W@	c #4D6D03",
"X@	c #51700A",
"Y@	c #719114",
"Z@	c #5B7A03",
"`@	c #C090C0",
" #	c #806080",
".#	c #600060",
"+#	c #5C7C03",
"@#	c #6B8A0D",
"##	c #698B14",
"$#	c #62830D",
"%#	c #4E6D0A",
"&#	c #4A6904",
"*#	c #5A7C0E",
"=#	c #4C6E18",
"-#	c #577A13",
";#	c #5C7E1A",
">#	c #4E6D01",
",#	c #5B7E0E",
"'#	c #4C6A00",
")#	c #C000C0",
"!#	c #A078A0",
"~#	c #800080",
"{#	c #A000A0",
"]#	c #5D7F0E",
"^#	c #67860D",
"/#	c #6F9123",
"(#	c #406300",
"_#	c #65881D",
":#	c #4E6E06",
"<#	c #456700",
"[#	c #719327",
"}#	c #355100",
"|#	c #67880D",
"1#	c #6A8B0F",
"2#	c #603060",
"3#	c #527101",
"4#	c #68890D",
"5#	c #395700",
"6#	c #385800",
"7#	c #668816",
"8#	c #648213",
"9#	c #557606",
"0#	c #567402",
"a#	c #5A7A0A",
"b#	c #62851D",
"c#	c #365500",
"d#	c #67870B",
"e#	c #6E9014",
"f#	c #61810C",
"g#	c #3F5F00",
"h#	c #60810F",
"i#	c #749623",
"j#	c #89AB39",
"k#	c #5E7F02",
"l#	c #5C8010",
"m#	c #527000",
"n#	c #6B8B0E",
"o#	c #577606",
"p#	c #5A7C10",
"q#	c #618321",
"r#	c #547710",
"s#	c #537400",
"t#	c #567401",
"u#	c #557718",
"v#	c #557600",
"w#	c #3B5B00",
"x#	c #4E6E01",
"y#	c #3D5A00",
"z#	c #51730E",
"A#	c #5A7B08",
"B#	c #6A8C13",
"C#	c #456400",
"D#	c #355400",
"E#	c #6F901F",
"F#	c #5E7C00",
"G#	c #5F7F04",
"H#	c #3D5D00",
"I#	c #567704",
"J#	c #527306",
"K#	c #466705",
"L#	c #597C1C",
"M#	c #395900",
"N#	c #67860C",
"O#	c #506F00",
"P#	c #628416",
"Q#	c #638515",
"R#	c #628311",
"S#	c #3C5A00",
"T#	c #5C7E0E",
"U#	c #55760D",
"V#	c #6B8D14",
"W#	c #507100",
"X#	c #5B7B01",
"Y#	c #6E921B",
"Z#	c #4F7014",
"`#	c #507103",
" $	c #547400",
".$	c #62840E",
"+$	c #4D6F08",
"@$	c #325200",
"#$	c #405E00",
"$$	c #476A00",
"%$	c #4D700F",
"&$	c #52740E",
"*$	c #527111",
"=$	c #567703",
"-$	c #476908",
";$	c #597B0A",
">$	c #587702",
",$	c #335000",
"'$	c #50710A",
")$	c #57790E",
"!$	c #5F8003",
"~$	c #486400",
"{$	c #5B7D08",
"]$	c #3F5E00",
"^$	c #618114",
"/$	c #628622",
"($	c #62821A",
"_$	c #4A6801",
":$	c #557708",
"<$	c #436300",
"[$	c #405D00",
"}$	c #5D8004",
"|$	c #304F00",
"1$	c #547600",
"2$	c #5C7D0D",
"3$	c #5E7C01",
"4$	c #395600",
"5$	c #5B7B06",
"6$	c #4C6E08",
"7$	c #678918",
"8$	c #60811A",
"9$	c #517206",
"0$	c #6B8D26",
"a$	c #618318",
"b$	c #2F4D00",
"c$	c #597A0D",
"d$	c #3C5C00",
"e$	c #57780A",
"f$	c #607E04",
"g$	c #5A7A0D",
"h$	c #557502",
"i$	c #416000",
"j$	c #698B27",
"k$	c #547303",
"l$	c #618311",
"m$	c #55770A",
"n$	c #517106",
"o$	c #547604",
"p$	c #7D9F28",
"q$	c #597B11",
"r$	c #5E8021",
"s$	c #4B6D0A",
"t$	c #507108",
"u$	c #5F810E",
"v$	c #557616",
"w$	c #4E6C00",
"x$	c #567A08",
"y$	c #446600",
"z$	c #587706",
"A$	c #4D6E04",
"B$	c #516E16",
"C$	c #5B7C0D",
"D$	c #4A6C00",
"E$	c #567800",
"F$	c #658513",
"G$	c #3A5C00",
"H$	c #5A7A14",
"I$	c #6A8C16",
"J$	c #63820D",
"K$	c #668818",
"L$	c #50720A",
"M$	c #5C7E0A",
"N$	c #446100",
"O$	c #5F8016",
"P$	c #729631",
"Q$	c #60810A",
"R$	c #2E4E00",
"S$	c #5F7E0A",
"T$	c #5F7E27",
"U$	c #4F700A",
"V$	c #6B8B0F",
"W$	c #6B8C18",
"X$	c #68880F",
"Y$	c #65840A",
"Z$	c #6A8E1F",
"`$	c #324F00",
" %	c #57790A",
".%	c #7B9D27",
"+%	c #59790D",
"@%	c #507004",
"#%	c #5B7A02",
"$%	c #597B0F",
"%%	c #799A1F",
"&%	c #567503",
"*%	c #4C6D02",
"=%	c #506E00",
"-%	c #436404",
";%	c #5E7E04",
">%	c #3B5900",
",%	c #335500",
"'%	c #597B09",
")%	c #5E7F0A",
"!%	c #5E8222",
"~%	c #65870E",
"{%	c #5A7C08",
"]%	c #395A00",
"^%	c #698B0F",
"/%	c #5B7C15",
"(%	c #4D6D04",
"_%	c #617F02",
":%	c #4D700E",
"<%	c #6E9231",
"[%	c #4A6700",
"}%	c #73961E",
"|%	c #63810A",
"1%	c #456102",
"2%	c #517110",
"3%	c #5B7D0A",
"4%	c #587C1B",
"5%	c #658508",
"6%	c #668716",
"7%	c #557608",
"8%	c #517304",
"9%	c #4C6C04",
"0%	c #416200",
"a%	c #4A6C01",
"  . + @ # $ % & * = - ; > , ' ) ! ~ { ] ^ / ( _ : < [ } | 1 2 3 ",
"4 5 6 7 8 9 0 a b c d e ~ f g h i j k l m n o p q r s t u v w x ",
"y z A B | C D i E @ F G H I J K L M N O P Q c R e S T U V W X Y ",
"Z `  ...+.@.#.$.%.&.h A *.=.-.-.-.;.>.,.'.).!.~.z {.].^./.(._.A ",
":.(.<.[.}.|.1.2.3.4.5.6.7.8.-.-.-.8.9.0.a.b.c.- d.e.f.#.A g.q h.",
"V i.j.k.l.h.m.n.o.p.q.2.r.s.t.t.t.u.8.v.w.x.y.z.A.).B.C.D.t E.F.",
"J G.C H.I.J.K.L.M.N.O.P.Q.r.s.R.S.8.:.T.U.V.W.X.Y.Z.t `. +.+++@+",
"#+$+A %+X &+*+=+- -+;+>+@ ,+'+)+!+,+d z ~+{+P ]+^+/+(+_+#.,.:+7.",
"<+[+m.z }+|+1+2+@ 3+4+e.5+,+'+)+!+,+6+7+8+9+#.0+a+b+c+(+d+- e+f+",
"V g+, h+} I.i+j+k+l+m+n+o+u.'+)+!+,+p+q+;.r+s+t+u+v+w+h x+P y+5+",
"z+(+/.,.A+B+a C+D+3+E+F+(+u.'+)+!+,+G+H+; Z I+J+o K+L+M+Z N+O+P+",
"Q+g.R+S+T+U+V+W+X+s+Y+Z+`+u.'+)+!+,+Z  @.@+@@@0 #@$@%@^.&@V+*@=@",
"-@;@>@,@'@)@M.!@~@{@]@^@/@u.8.)+!+,+(@_@:@<@;.[@}@|@1@2@3@4@~+5@",
" .G+6@*.I 7@8@9@0@a@9.b@!@u.8.)+!+c@d@e@f@|+g@@ h@2.i@j@k@l@m@n@",
"s+o@p@f q@r@U s@t@+@D.'+s.s.8.8.)+!+c@c@u@v@w@x@y@ @z@A@&@B@C@D@",
"E@F@G@#@%+H@I@J@G+K@'+L@r.r.s.8.)+)+!+!+c@M@N@O@P@Q@>+R@z S@P+(.",
"T@U@V@V+z W@X@Y@Z@'+`@L@r.r.L@`@ #.#.#!+!+c@+#@#`.##- $#%#&#E.*#",
"=#-#}@;#>#,#'#V+'+)#!#`@L@L@`@!# #~#~#~#{#{#c@]#^#:./#0 (#]#~ _#",
":#<#[#q }#|#1##.'+2# #!#`@`@!# #{#{#{#)#)#.#c@3#>+4#5#6#3#7#8#9#",
"0#a#b#|.c#d#e#_ '+2#2# # # # #)#)#)#.#.#.#.#c@f#o L+g#h#i#j#6.G+",
"S@e@A k#l#m#n#o#'+.#2#2#2#2#.#.#.#.#.#.#{#~#c@~ A p#q#2.|.r#]#s#",
"} t#u#U+s#m#:@5#'+~#.#.#.#~#.#.#.#.#{#~#~#~#c@v#w#x#D+y#z#A#B#C#",
"D#E#y+v#F#a G#H#'+.#.#~#.#.#.#~#~#~#~#~#{#{#c@I#J#K#L#M##.N#|.o ",
"O#P#6#Q#R#S#T#U#V#'+.#.#.#~#~#~#~#{#{#{#{#c@{@W#X#Y#Z#0 `# $.$+$",
"@$#$}@$$E.%$&$*$` '+~#~#~#~#~#)#{#{#{#{#)#c@#.V+%.=$-$;$#.D @ >$",
"U t |+F@,$'$)$t !$~$,+{#{#{#{#{#{#)#)#)#c@{$Q@]$ $^$-+/$($_$C#:$",
"<$[$}$3 |$m.1$2$3$6.4$,+,+)#)#)#)#)#c@c@C i.5$6$7$]$} 8$9$0$a$g ",
"b$}.o c$d$e$f$g$h$i$j$k$g.c@c@c@c@c@,.l$m$n$o$'$p$q$n$K@K.r$Z.e ",
"s$t$@ S+Z , u$v$w$M#x$y$z$A$g.B$C$j.y+D$E$F$:+G$E H$I$J$q+K$D.0#",
"L$X M$M#} )$N$O$1.I o+P$Q$D.X R$O S$T$U$V$W$F+g.W#X$n+Y$Z$<#S+`$",
"~  %.%<$V +%@%#%$%- %%c#&%*%=%-%;%g >%,%'%u H#)%!%~%{%q+0$m.o@]%",
"G+`$^%/%F@e.(%_%:%X G+<%[%z 3#i$}%|%1%2%3%}.4%5%6%7%%.8%t 9%0%a%"};
