/* XPM */
static char * C:\Users\Leonardo\Downloads\assets\map\exit_xpm[] = {
"32 32 23 1",
" 	c #0A0A0A",
".	c #000000",
"+	c #151515",
"@	c #515151",
"#	c #5D5D5D",
"$	c #686868",
"%	c #454545",
"&	c #393939",
"*	c #2D2D2D",
"=	c #212121",
"-	c #2D1A18",
";	c #1A1A1A",
">	c #381F1B",
",	c #4F2A25",
"'	c #68362F",
")	c #7F4038",
"!	c #7F6338",
"~	c #68522F",
"{	c #AC864A",
"]	c #C49852",
"^	c #977541",
"/	c #382D1B",
"(	c #4F3F25",
" . + ..  .  . ++    .  ++  . .  ",
" @#@$@%#$#@#@%#@#%#@%@%&%%&&***.",
" $@$@%%@#%@$#%%##@#$##%%&&%&&**.",
"+@##%@##%#&&++====++*&@@%&%%&&* ",
" $#%@$#&&*++---;>---++*&@%%&%&*.",
"+$@@#%&&*+-->->;,>>---+*&@%%&%*+",
" #$@%&*++---,->;',>->--++&&&%%* ",
".@#$&*+-->--,>>;',>-,----+*&*&*+",
" #$%*=--->>-,>,;',,-,>->--+*&*& ",
".@%&+->>-,>-'>,;),,>,,>>,--+&%*+",
".$@+->,>-,>>'>,;),'>',>,,->-%&&+",
".@%+->,,>',>',';),'>',>',-,-#&%+",
" #$ >,',>',>',';),'>',,''>,-$**+",
"+#% >,''>'',',';),','','','>$&*+",
"+#@+!,'','',',';)'','',''''!$&* ",
" @&=~{]]]]{{{^^/]^{]]]{{{^^~#%& ",
" &*+(((~~~~~(((/^((~~~~~~(((#%* ",
".*&+/-->-->----;'>>-->-->->/$&*+",
".&* ---,-->,->-;',,->,->>-,-@%&+",
" %& -,-,->,,>,>;)',>>,->,-,>$@% ",
".@% >'>,>>,'>,,;)',>,'>,,>,>#@@ ",
" #%+>','>,''>,';)',,'',,','>@&@.",
".#@+!''',,'','';'''''''''''!#&@ ",
" @$=~^]]]{{{{^^/]^{]]]{{{{^~@&%+",
" %@+(((~~~~~(((/^((~~~((((((@*&+",
"+&$=/>>--------;'>--->>>---/@*& ",
" &@+>''','''''';)''''''''''>@**.",
"+&%+>,,'>'',,',;),',',',','>%** ",
" &&+-,,'>',>,'>;),,,,>,,'>,-%=*+",
" &&=-,>,>,>->,>;'>,>,->>,->-&== ",
"+*=+>>->-->->>-;'->->->->---&==+",
" +  ........................+ + "};
