/* XPM */
static char * C:\Users\Leonardo\Downloads\assets\map\floor_xpm[] = {
"32 32 691 2",
"  	c #517104",
". 	c #6E9114",
"+ 	c #68870A",
"@ 	c #436100",
"# 	c #527404",
"$ 	c #638414",
"% 	c #5C7D0A",
"& 	c #618216",
"* 	c #84A62B",
"= 	c #55760C",
"- 	c #496800",
"; 	c #597A0A",
"> 	c #527102",
", 	c #466600",
"' 	c #69890C",
") 	c #56770C",
"! 	c #486600",
"~ 	c #517000",
"{ 	c #4F7006",
"] 	c #547200",
"^ 	c #6C9031",
"/ 	c #65860A",
"( 	c #50720F",
"_ 	c #57780D",
": 	c #668A1A",
"< 	c #5E7D0C",
"[ 	c #4C6F0E",
"} 	c #486800",
"| 	c #3D5E00",
"1 	c #668505",
"2 	c #365400",
"3 	c #426300",
"4 	c #5A7B0E",
"5 	c #61830A",
"6 	c #5D7C04",
"7 	c #4B6B06",
"8 	c #365700",
"9 	c #618014",
"0 	c #416100",
"a 	c #557400",
"b 	c #698A14",
"c 	c #476700",
"d 	c #5C7D06",
"e 	c #567400",
"f 	c #375500",
"g 	c #557603",
"h 	c #426000",
"i 	c #547500",
"j 	c #5C7B00",
"k 	c #4A6B02",
"l 	c #6B8D18",
"m 	c #60831D",
"n 	c #506D00",
"o 	c #3E5D00",
"p 	c #4C6C0B",
"q 	c #476800",
"r 	c #577500",
"s 	c #5F8015",
"t 	c #3B5A00",
"u 	c #56770A",
"v 	c #5B7806",
"w 	c #4E6B00",
"x 	c #436600",
"y 	c #608208",
"z 	c #4A6A00",
"A 	c #496900",
"B 	c #476806",
"C 	c #517103",
"D 	c #5A7B06",
"E 	c #5F7E08",
"F 	c #6B8D1F",
"G 	c #719218",
"H 	c #7D9F26",
"I 	c #3E5E00",
"J 	c #4C6B03",
"K 	c #406000",
"L 	c #587C11",
"M 	c #567701",
"N 	c #4C6C03",
"O 	c #4F6D00",
"P 	c #456300",
"Q 	c #557506",
"R 	c #4B6900",
"S 	c #6E8D10",
"T 	c #5B7A00",
"U 	c #3D5C00",
"V 	c #466500",
"W 	c #63840A",
"X 	c #3E5C00",
"Y 	c #567708",
"Z 	c #426100",
"` 	c #577600",
" .	c #547406",
"..	c #597B08",
"+.	c #52710D",
"@.	c #698B1C",
"#.	c #476600",
"$.	c #5B7A08",
"%.	c #456600",
"&.	c #648509",
"*.	c #3A5900",
"=.	c #51710C",
"-.	c #4F710C",
";.	c #587814",
">.	c #517100",
",.	c #406001",
"'.	c #446300",
").	c #56780A",
"!.	c #476900",
"~.	c #6E911F",
"{.	c #476400",
"].	c #557403",
"^.	c #668707",
"/.	c #466400",
"(.	c #496A00",
"_.	c #4F6E00",
":.	c #54760A",
"<.	c #547300",
"[.	c #51740F",
"}.	c #5A7A01",
"|.	c #436200",
"1.	c #4E6D00",
"2.	c #496700",
"3.	c #426200",
"4.	c #678811",
"5.	c #769722",
"6.	c #4A6B0C",
"7.	c #456500",
"8.	c #486908",
"9.	c #55740C",
"0.	c #4A6C01",
"a.	c #507000",
"b.	c #3E5F00",
"c.	c #5F7E00",
"d.	c #567600",
"e.	c #577602",
"f.	c #678B26",
"g.	c #567500",
"h.	c #516F00",
"i.	c #6A8B14",
"j.	c #527100",
"k.	c #648306",
"l.	c #446200",
"m.	c #638518",
"n.	c #5B7D18",
"o.	c #5D7E0A",
"p.	c #6F9115",
"q.	c #4E700A",
"r.	c #4C6E00",
"s.	c #658718",
"t.	c #6D8F1F",
"u.	c #577804",
"v.	c #4D6D01",
"w.	c #608314",
"x.	c #416300",
"y.	c #527306",
"z.	c #3C5A00",
"A.	c #6B8D11",
"B.	c #4A6800",
"C.	c #72962E",
"D.	c #6A8D16",
"E.	c #719111",
"F.	c #799B1F",
"G.	c #72951C",
"H.	c #587802",
"I.	c #345000",
"J.	c #4D6E00",
"K.	c #577700",
"L.	c #5F8116",
"M.	c #305000",
"N.	c #527301",
"O.	c #4F6F00",
"P.	c #658723",
"Q.	c #678814",
"R.	c #5B7E13",
"S.	c #4F7106",
"T.	c #4B6C0A",
"U.	c #446502",
"V.	c #5A7C0C",
"W.	c #74992E",
"X.	c #56790E",
"Y.	c #496B06",
"Z.	c #4D6F03",
"`.	c #4A6900",
" +	c #517200",
".+	c #62830A",
"++	c #60820F",
"@+	c #5B7D0D",
"#+	c #64881A",
"$+	c #6A8A0D",
"%+	c #5C7F0E",
"&+	c #4B6B00",
"*+	c #53740A",
"=+	c #5F800F",
"-+	c #52730D",
";+	c #64871A",
">+	c #59780C",
",+	c #4D6E01",
"'+	c #466503",
")+	c #5E800C",
"!+	c #4F6E0A",
"~+	c #688A15",
"{+	c #68891C",
"]+	c #385900",
"^+	c #618511",
"/+	c #527300",
"(+	c #537306",
"_+	c #4E6F03",
":+	c #64871C",
"<+	c #6C8E1F",
"[+	c #5A7900",
"}+	c #668718",
"|+	c #4B6D00",
"1+	c #638418",
"2+	c #54740A",
"3+	c #476500",
"4+	c #315000",
"5+	c #4F7003",
"6+	c #587B0F",
"7+	c #446603",
"8+	c #5D7F0A",
"9+	c #446500",
"0+	c #668A1B",
"a+	c #436500",
"b+	c #537503",
"c+	c #6B8F14",
"d+	c #4B6A00",
"e+	c #4F6E01",
"f+	c #709014",
"g+	c #4C6F00",
"h+	c #7C9E29",
"i+	c #6A8D1C",
"j+	c #517102",
"k+	c #537508",
"l+	c #56750C",
"m+	c #4F731A",
"n+	c #597903",
"o+	c #335300",
"p+	c #4F7000",
"q+	c #3A5800",
"r+	c #375700",
"s+	c #456506",
"t+	c #5A7C0D",
"u+	c #618410",
"v+	c #4F710E",
"w+	c #5B7B0A",
"x+	c #436201",
"y+	c #3D5B00",
"z+	c #57770A",
"A+	c #4F7100",
"B+	c #5B7C0A",
"C+	c #74951D",
"D+	c #648416",
"E+	c #70931C",
"F+	c #507200",
"G+	c #5D7C0D",
"H+	c #5A7B18",
"I+	c #385700",
"J+	c #7D9F23",
"K+	c #537404",
"L+	c #517204",
"M+	c #547611",
"N+	c #314E00",
"O+	c #6A8A18",
"P+	c #68890B",
"Q+	c #4B6C06",
"R+	c #52730A",
"S+	c #4E7000",
"T+	c #587A18",
"U+	c #79991D",
"V+	c #56760A",
"W+	c #355300",
"X+	c #618110",
"Y+	c #4E6E00",
"Z+	c #547506",
"`+	c #5B7B02",
" @	c #4F6F0C",
".@	c #5B7A07",
"+@	c #436400",
"@@	c #506F08",
"#@	c #5D7C06",
"$@	c #4D6C00",
"%@	c #335400",
"&@	c #425F00",
"*@	c #4D6D00",
"=@	c #71931B",
"-@	c #4D6B00",
";@	c #486700",
">@	c #58790A",
",@	c #5C7D0C",
"'@	c #7B9F31",
")@	c #55750A",
"!@	c #5B7A04",
"~@	c #74961E",
"{@	c #446100",
"]@	c #567716",
"^@	c #4B6E00",
"/@	c #587903",
"(@	c #608216",
"_@	c #3F6000",
":@	c #587900",
"<@	c #415F00",
"[@	c #62810A",
"}@	c #415E00",
"|@	c #587901",
"1@	c #446301",
"2@	c #729218",
"3@	c #506F02",
"4@	c #587A04",
"5@	c #456704",
"6@	c #6A8C23",
"7@	c #557200",
"8@	c #608006",
"9@	c #628308",
"0@	c #6F911F",
"a@	c #486900",
"b@	c #516F07",
"c@	c #608416",
"d@	c #4E6F04",
"e@	c #608110",
"f@	c #527413",
"g@	c #446508",
"h@	c #6A8C1C",
"i@	c #4A6B00",
"j@	c #608003",
"k@	c #668823",
"l@	c #375600",
"m@	c #4C6C00",
"n@	c #779825",
"o@	c #7EA039",
"p@	c #54740C",
"q@	c #749416",
"r@	c #4D6C08",
"s@	c #6C8C0C",
"t@	c #50730F",
"u@	c #597C0E",
"v@	c #5A7C1A",
"w@	c #80A433",
"x@	c #58780A",
"y@	c #58790C",
"z@	c #6A8E16",
"A@	c #668618",
"B@	c #4E6F08",
"C@	c #597A16",
"D@	c #486803",
"E@	c #537200",
"F@	c #7FA32B",
"G@	c #678709",
"H@	c #7EA129",
"I@	c #6D911F",
"J@	c #446400",
"K@	c #537506",
"L@	c #7EA227",
"M@	c #3F6100",
"N@	c #5E7F06",
"O@	c #5E7D08",
"P@	c #4C6D00",
"Q@	c #638716",
"R@	c #5D7E0D",
"S@	c #5F8118",
"T@	c #4F6F02",
"U@	c #69891C",
"V@	c #557408",
"W@	c #4C6C08",
"X@	c #436300",
"Y@	c #65881D",
"Z@	c #304F00",
"`@	c #5E8004",
" #	c #789925",
".#	c #638416",
"+#	c #688A1F",
"@#	c #5F7E02",
"##	c #698C1F",
"$#	c #547508",
"%#	c #587604",
"&#	c #46660E",
"*#	c #4B6800",
"=#	c #5B7C0F",
"-#	c #375900",
";#	c #405F00",
">#	c #648206",
",#	c #63841F",
"'#	c #50710E",
")#	c #638303",
"!#	c #3A5B00",
"~#	c #567501",
"{#	c #517413",
"]#	c #3B5B00",
"^#	c #3D5D00",
"/#	c #456800",
"(#	c #5C7E04",
"_#	c #577502",
":#	c #4A6C00",
"<#	c #597B13",
"[#	c #6F9122",
"}#	c #567603",
"|#	c #587708",
"1#	c #547403",
"2#	c #638205",
"3#	c #4E6E0A",
"4#	c #2F4F00",
"5#	c #527203",
"6#	c #4D6D03",
"7#	c #51700A",
"8#	c #719114",
"9#	c #5B7A03",
"0#	c #5E7F18",
"a#	c #355000",
"b#	c #385800",
"c#	c #4B6A01",
"d#	c #658618",
"e#	c #577802",
"f#	c #456601",
"g#	c #5C7C03",
"h#	c #6B8A0D",
"i#	c #698B14",
"j#	c #62830D",
"k#	c #4E6D0A",
"l#	c #4A6904",
"m#	c #5A7C0E",
"n#	c #4C6E18",
"o#	c #577A13",
"p#	c #5C7E1A",
"q#	c #4E6D01",
"r#	c #5B7E0E",
"s#	c #4C6A00",
"t#	c #4F7208",
"u#	c #55750C",
"v#	c #466608",
"w#	c #60841D",
"x#	c #3C5B00",
"y#	c #3D5F00",
"z#	c #5F8207",
"A#	c #557300",
"B#	c #5D7F0E",
"C#	c #67860D",
"D#	c #6F9123",
"E#	c #406300",
"F#	c #4E6E06",
"G#	c #456700",
"H#	c #719327",
"I#	c #355100",
"J#	c #67880D",
"K#	c #6A8B0F",
"L#	c #2F4E00",
"M#	c #618316",
"N#	c #3A5700",
"O#	c #355400",
"P#	c #628108",
"Q#	c #3A5A00",
"R#	c #506F00",
"S#	c #587A0F",
"T#	c #557406",
"U#	c #496804",
"V#	c #4A6801",
"W#	c #6F8F12",
"X#	c #527101",
"Y#	c #68890D",
"Z#	c #395700",
"`#	c #668816",
" $	c #648213",
".$	c #557606",
"+$	c #567402",
"@$	c #5A7A0A",
"#$	c #62851D",
"$$	c #365500",
"%$	c #67870B",
"&$	c #6E9014",
"*$	c #60831A",
"=$	c #5D7C0C",
"-$	c #5A7D0E",
";$	c #527001",
">$	c #3D5A00",
",$	c #688716",
"'$	c #5F8121",
")$	c #517206",
"!$	c #70951D",
"~$	c #61810C",
"{$	c #3F5F00",
"]$	c #60810F",
"^$	c #749623",
"/$	c #89AB39",
"($	c #5E7F02",
"_$	c #5C8010",
":$	c #527000",
"<$	c #6B8B0E",
"[$	c #577606",
"}$	c #6A8C27",
"|$	c #72951A",
"1$	c #547616",
"2$	c #577501",
"3$	c #618323",
"4$	c #517203",
"5$	c #698B15",
"6$	c #5E7D03",
"7$	c #3C5D00",
"8$	c #5A7C10",
"9$	c #618321",
"0$	c #547710",
"a$	c #537400",
"b$	c #567401",
"c$	c #557718",
"d$	c #668509",
"e$	c #527304",
"f$	c #3A5B06",
"g$	c #608010",
"h$	c #5D7F1A",
"i$	c #5C7D16",
"j$	c #82A635",
"k$	c #668818",
"l$	c #557600",
"m$	c #4E6E01",
"n$	c #51730E",
"o$	c #5A7B08",
"p$	c #6A8C13",
"q$	c #456400",
"r$	c #6F901F",
"s$	c #5E7C00",
"t$	c #5F7F04",
"u$	c #6F931C",
"v$	c #496601",
"w$	c #688C31",
"x$	c #557500",
"y$	c #5B7D0C",
"z$	c #4B6C00",
"A$	c #628318",
"B$	c #6D8C0D",
"C$	c #618002",
"D$	c #779B31",
"E$	c #4F710D",
"F$	c #567704",
"G$	c #466705",
"H$	c #597C1C",
"I$	c #395900",
"J$	c #67860C",
"K$	c #628416",
"L$	c #638515",
"M$	c #628311",
"N$	c #5C7E0E",
"O$	c #55760D",
"P$	c #6B8D14",
"Q$	c #628423",
"R$	c #6D911D",
"S$	c #5E7D0A",
"T$	c #405E00",
"U$	c #678915",
"V$	c #5A7902",
"W$	c #507100",
"X$	c #5B7B01",
"Y$	c #6E921B",
"Z$	c #4F7014",
"`$	c #507103",
" %	c #547400",
".%	c #62840E",
"+%	c #4D6F08",
"@%	c #325200",
"#%	c #476A00",
"$%	c #4D700F",
"%%	c #52740E",
"&%	c #527111",
"*%	c #5A7903",
"=%	c #5A7C1C",
"-%	c #779B23",
";%	c #5A7A00",
">%	c #709125",
",%	c #567703",
"'%	c #476908",
")%	c #597B0A",
"!%	c #587702",
"~%	c #335000",
"{%	c #50710A",
"]%	c #57790E",
"^%	c #5F8003",
"/%	c #486400",
"(%	c #2E4C00",
"_%	c #5E7F16",
":%	c #597803",
"<%	c #6D8D1A",
"[%	c #85A735",
"}%	c #5B7D08",
"|%	c #3F5E00",
"1%	c #618114",
"2%	c #628622",
"3%	c #62821A",
"4%	c #557708",
"5%	c #405D00",
"6%	c #5D8004",
"7%	c #547600",
"8%	c #5C7D0D",
"9%	c #5E7C01",
"0%	c #395600",
"a%	c #63831A",
"b%	c #51730C",
"c%	c #53760E",
"d%	c #597914",
"e%	c #5B7B06",
"f%	c #4C6E08",
"g%	c #678918",
"h%	c #60811A",
"i%	c #6B8D26",
"j%	c #618318",
"k%	c #2F4D00",
"l%	c #597A0D",
"m%	c #3C5C00",
"n%	c #57780A",
"o%	c #607E04",
"p%	c #5A7A0D",
"q%	c #557502",
"r%	c #416000",
"s%	c #698B27",
"t%	c #547303",
"u%	c #4F6E04",
"v%	c #496802",
"w%	c #618311",
"x%	c #55770A",
"y%	c #517106",
"z%	c #547604",
"A%	c #7D9F28",
"B%	c #597B11",
"C%	c #5E8021",
"D%	c #4B6D0A",
"E%	c #507108",
"F%	c #5F810E",
"G%	c #557616",
"H%	c #4E6C00",
"I%	c #567A08",
"J%	c #446600",
"K%	c #587706",
"L%	c #4D6E04",
"M%	c #516E16",
"N%	c #5B7C0D",
"O%	c #567800",
"P%	c #658513",
"Q%	c #3A5C00",
"R%	c #5A7A14",
"S%	c #6A8C16",
"T%	c #63820D",
"U%	c #50720A",
"V%	c #5C7E0A",
"W%	c #5F8016",
"X%	c #729631",
"Y%	c #60810A",
"Z%	c #2E4E00",
"`%	c #5F7E0A",
" &	c #5F7E27",
".&	c #4F700A",
"+&	c #6B8B0F",
"@&	c #6B8C18",
"#&	c #68880F",
"$&	c #65840A",
"%&	c #6A8E1F",
"&&	c #324F00",
"*&	c #57790A",
"=&	c #7B9D27",
"-&	c #59790D",
";&	c #507004",
">&	c #5B7A02",
",&	c #597B0F",
"'&	c #799A1F",
")&	c #567503",
"!&	c #4C6D02",
"~&	c #506E00",
"{&	c #436404",
"]&	c #5E7E04",
"^&	c #3B5900",
"/&	c #335500",
"(&	c #597B09",
"_&	c #5E7F0A",
":&	c #5E8222",
"<&	c #65870E",
"[&	c #5A7C08",
"}&	c #395A00",
"|&	c #698B0F",
"1&	c #5B7C15",
"2&	c #4D6D04",
"3&	c #617F02",
"4&	c #4D700E",
"5&	c #6E9231",
"6&	c #4A6700",
"7&	c #73961E",
"8&	c #63810A",
"9&	c #456102",
"0&	c #517110",
"a&	c #5B7D0A",
"b&	c #587C1B",
"c&	c #658508",
"d&	c #668716",
"e&	c #557608",
"f&	c #517304",
"g&	c #4C6C04",
"h&	c #416200",
"  . + @ # $ % & * = - ; > , ' ) ! ~ { ] ^ / ( _ : < [ } | 1 2 3 ",
"4 5 6 7 8 9 0 a b c d e ~ f g h i j k l m n o p q r s t u v w x ",
"y z A B | C D i E @ F G H I J K L M N O P Q c R e S T U V W X Y ",
"Z `  ...+.@.#.$.%.&.h A *.=.r -.;.>.,.'.).!.~.{.z ].^./.(._.:.A ",
"<._.[.}.|.1.2.3.4.5.6.7.8.9.0.a.b.c.d.e.f.g.h.- i.j.k.#.A l.q m.",
"V n.o.p.q.m.r.s.t.u.v.3.l.w.x.y.z.#.A.B.C.D.E.F.G.!.H.I.J.t K.L.",
"J M.C N.O.P.Q.R.S.T.U.V.W.X.Y.Z.`. +<..+++@+#+$+%+&+t *+=+-+;+>+",
",+'+A )+X !+~+{+- ]+^+/+@ (+_+:+>.<+d z [+}+P |+1+2+3+4+#.'.5+8.",
"6+7+r.z 8+9+0+a+@ b+c+j.d+2+e+#.f+g+h+i+j+k+#.l+m+n+o+3+p+- q+r+",
"V s+, t+} O.u+v+w+x+y+z+A+h.A B+C+D+E+F+>.G+`.H+I+J+K+h L+P M+d+",
"N+3+(.'.O+P+a Q+R+b+S+T+3+U+V+W+V X+Y+Z+; Z `+ @o .@a.+@Z @@#@$@",
"%@l.&@*@=@-@;@>@,@`.'@)@!@~@{@o ]@^@Z /@(@_@:@0 <@[@}@/.|@;@1@2@",
"3@4@5@6@7@8@S.9@0@a@b@c@d@#.e@f@g@a.h@i@j@k@>.l@m@n@o@p@q@r@[+s@",
" .Y+t@*.I u@v@w@x@y@d.z@9@A@B@C@D@E@F@G@H@9+I@@ J@3.E@K@L@M@N@O@",
"`.P@Q@f R@S@U T@U@_@J.V@d+W@X@Y@Z@_.`@;@ #.#+#@###/@$#%#|@&#*#=#",
"-#;#>#<@)+,#'#)#Y+!#~#{#]#7.^#e+/#(#_#:#<#[#}#|#/#1#/+2#z 3#$@_.",
"4#5#c.;@z 6#7#8#9#o 0#a#b#c##.d#e#X@} h f#y.g#h#*+i#- j#k#l#K.m#",
"n#o#m@p#q#r#s#;@#.t#u#v#*+J@J@w#_.a+x#y#y#z#A#B#C#<.D#0 E#B#~ Y@",
"F#G#H#q I#J#K##.L#M#N#O#X@P#Q#R#%.S#T#U#V#W#y.X#/+Y#Z#b#X#`# $.$",
"+$@$#$1.$$%$&$_ *$=$-$z.;$8@>$,$0 m@*@'$)$!$| ~$o a.{$]$^$/$7.Y+",
"3#G@A ($_$:$<$[$h.}$|$1$2$# 3$4$@ j.5$@ )@6$7$~ A 8$9$3.1.0$B#a$",
"} b$c$-@a$:$j@Z#d$7.e$f$Y+(.g$, {$h$}#&@i$j$k$l$]#m$R+>$n$o$p$q$",
"O#r$M+l$s$a t$^#u$, v$w$x$`.y$z$h A$B$C$:$D$E$F$y.G$H$I$#.J$1.o ",
"R#K$b#L$M$z.N$O$P$} a.Q$x$R$}#S$T$U$V$P V#w a@W$X$Y$Z$0 `$ %.%+%",
"@%T$m@#%K.$%%%&%` *%, =%s#-%e+V a@;%c f >%- #.;@%.,%'%)%#.D @ !%",
"U t 9+;#~%{%]%t ^%/%1$(%o , _%:%<%[%q$I$@%}%1#|% %1%]+2%3%V#q$4%",
"X@5%6%3 Z@r.7%8%9%7.0%a%b%c%l.d%P@-@B+|%C n.e%f%g%|%} h%)$i%j%g ",
"k%|.o l%m%n%o%p%q%r%s%t%l.m%u%v%y.L$'.w%x%y%z%{%A%B%y%!#Q.C%&+e ",
"D%E%@ *@Z , F%G%H%I$I%J%K%L%l.M%N%o.M+:#O%P%5+Q%E R%S%T%F+k$J.+$",
"U%X V%I$} ]%{@W%2.I A+X%Y%J.X Z%O `% &.&+&@&T+l.W$#&z+$&%&G#*@&&",
"~ *&=&X@V -&;&>&,&- '&$$)&!&~&{&]&g ^&/&(&u ^#_&:&<&[&F+i%r.P@}&",
"Y+&&|&1&;#j.2&3&4&X Y+5&6&z X#r%7&8&9&0&a&|.b&c&d&e&%.f&t g&h&0."};
