/* XPM */
static char * C:\Users\Leonardo\Downloads\assets\map\wall_xpm[] = {
"32 32 9 1",
" 	c #101010",
".	c #303030",
"+	c #707070",
"@	c #909090",
"#	c #808080",
"$	c #606060",
"%	c #505050",
"&	c #404040",
"*	c #202020",
"           .     .              ",
" +@#@ +@#++ @#+@# @+#+@ @+++##++",
" #$$%.+$$$. +$$%& +$&%& +$$%%&%.",
" #$%..+$&.&.+%&&..+%.&. +%%&&.%.",
"    . .     .     . .  *.       ",
". @+@+$+$ @#$@+#+$ @#$+$.$@#$ $+",
". @$&%%&& +%%&%%%& +%%&% +%&& +%",
". #$$&%&&.$&%&&&%&*+&&%&*+&%& $.",
"       ..  . .    ** * *.     . ",
" #+$+++$.++@+@+$.$+#+$ $+@#@#$+$",
" +$$%%&. $$&&&.. +$%&% +%&%&%%.&",
" +$%&%.& $%&.&%& $%&.. $&%&%&.&.",
"     .  ..  .   . .           . ",
". +#+.$+@@@+.$+#@$ @#@+$$ $++$$$",
". +$% +&%&&% +%%&% +%%%&% +%%&&%",
". +%& +%&%%% +%&%& +%&%.&.$%&%&&",
"  .             . .      .     .",
" #@@#$#++$ $++@$ $@#@$$.$++@++$$",
" +$%&&%%&% +%&%& +%&%%&.@%&%%&&%",
" +$&%%&&%%.$%%&% +%.&%% #%&%&%%&",
"      ..   .    .  ..  .    . . ",
". +#+$.$@+@+$ +@$+$.$+@+$++$.$++",
". @$%& #%%%%& +%%%& +%%%&%.&.+%&",
". +$&. +%&.&. $%&.& $%&.&&&. $&.",
"     .  . .     .  ..    .    . ",
" +@+ $+#@$ $+@#$ $+@#+$+$ $++$$$",
" @$& @&%%& +%&%&.+%&&&%%&.+%&.&%",
" +%. +%&.. +&.&. $%&.&%&. +&.&%&",
"     ..   .  . ..  .    ..      ",
" .#@+$ #+@@$$ +@$@%.@@+$ ++@@+$%",
" .+&&. +&%&%& +%&&. +%&& +%&&&%&",
" .&... $..... &.... %... %......"};
